<svg width="56" height="56" viewBox="0 0 56 56" fill="none" xmlns="http://www.w3.org/2000/svg">
<path d="M27.9982 18.5C26.1866 18.4998 24.4127 19.0174 22.8854 19.9918C21.3582 20.9663 20.1413 22.3569 19.3782 24H21.7502C21.9491 24 22.1399 24.079 22.2806 24.2197C22.4212 24.3603 22.5002 24.5511 22.5002 24.75C22.5002 24.9489 22.4212 25.1397 22.2806 25.2803C22.1399 25.421 21.9491 25.5 21.7502 25.5H18.0002C17.735 25.5 17.4807 25.3946 17.2931 25.2071C17.1056 25.0196 17.0002 24.7652 17.0002 24.5V20.75C17.0002 20.5511 17.0792 20.3603 17.2199 20.2197C17.3606 20.079 17.5513 20 17.7502 20C17.9491 20 18.1399 20.079 18.2806 20.2197C18.4212 20.3603 18.5002 20.5511 18.5002 20.75V22.447C19.4697 20.7886 20.8567 19.4131 22.5231 18.4574C24.1896 17.5017 26.0772 16.9993 27.9982 17C34.0742 17 39.0002 21.925 39.0002 28C39.0002 34.075 34.0742 39 27.9982 39C22.0142 39 17.1462 34.223 17.0002 28.275C16.9953 28.0761 17.0696 27.8834 17.2068 27.7393C17.344 27.5951 17.5328 27.5114 17.7317 27.5065C17.9306 27.5016 18.1234 27.5759 18.2675 27.7131C18.4116 27.8503 18.4953 28.0391 18.5002 28.238C18.5623 30.7157 19.5903 33.0711 21.3648 34.8015C23.1392 36.5319 25.5197 37.5003 27.9982 37.5C33.2462 37.5 37.5002 33.247 37.5002 28C37.5002 22.753 33.2462 18.5 27.9982 18.5Z" fill="#B9B9B9"/>
<path d="M28.5 23.25C28.5 23.0511 28.421 22.8603 28.2803 22.7197C28.1397 22.579 27.9489 22.5 27.75 22.5C27.5511 22.5 27.3603 22.579 27.2197 22.7197C27.079 22.8603 27 23.0511 27 23.25V28.75C27 29.02 27.144 29.268 27.378 29.401L30.878 31.401C31.0503 31.4941 31.2522 31.5161 31.4405 31.4624C31.6288 31.4086 31.7886 31.2833 31.8858 31.1133C31.9829 30.9433 32.0097 30.742 31.9604 30.5524C31.9112 30.3629 31.7897 30.2002 31.622 30.099L28.5 28.315V23.25Z" fill="#B9B9B9"/>
</svg>
