<svg width="56" height="56" viewBox="0 0 56 56" fill="none" xmlns="http://www.w3.org/2000/svg">
<path d="M19 37.0183L19.7898 34.1458C21.0964 29.3941 24.5482 26.9863 28 26.9863" stroke="#0F314D" stroke-width="1.5" stroke-linecap="round" stroke-linejoin="round"/>
<path d="M28 26.9902C30.7614 26.9902 33 24.7517 33 21.9902C33 19.2288 30.7614 16.9902 28 16.9902C25.2386 16.9902 23 19.2288 23 21.9902C23 24.7517 25.2386 26.9902 28 26.9902Z" stroke="#0F314D" stroke-width="1.5" stroke-linecap="round" stroke-linejoin="bevel"/>
<path d="M33 39.002C35.7614 39.002 38 36.7634 38 34.002C38 31.2405 35.7614 29.002 33 29.002C30.2386 29.002 28 31.2405 28 34.002C28 36.7634 30.2386 39.002 33 39.002Z" stroke="#0F314D" stroke-width="1.5" stroke-linecap="round" stroke-linejoin="round"/>
<path d="M31 34H35" stroke="#0F314D" stroke-width="1.5" stroke-linecap="round" stroke-linejoin="round"/>
<path d="M33 32.002V36.002" stroke="#0F314D" stroke-width="1.5" stroke-linecap="round" stroke-linejoin="round"/>
</svg>
