<svg width="56" height="56" viewBox="0 0 56 56" fill="none" xmlns="http://www.w3.org/2000/svg">
<path d="M30.25 31.75V33.625C30.25 34.1223 30.0525 34.5992 29.7008 34.9508C29.3492 35.3025 28.8723 35.5 28.375 35.5H20.875C20.3777 35.5 19.9008 35.3025 19.5492 34.9508C19.1975 34.5992 19 34.1223 19 33.625V22.375C19 21.8777 19.1975 21.4008 19.5492 21.0492C19.9008 20.6975 20.3777 20.5 20.875 20.5H28C29.0355 20.5 30.25 21.3395 30.25 22.375V24.25" stroke="#B9B9B9" stroke-width="1.5" stroke-linecap="round" stroke-linejoin="round"/>
<path d="M33.25 31.75L37 28L33.25 24.25" stroke="#B9B9B9" stroke-width="1.5" stroke-linecap="round" stroke-linejoin="round"/>
<path d="M24.25 28H36.25" stroke="#B9B9B9" stroke-width="1.5" stroke-linecap="round" stroke-linejoin="round"/>
</svg>
