<svg width="160" height="36" viewBox="0 0 160 36" fill="none" xmlns="http://www.w3.org/2000/svg">
<g clip-path="url(#clip0_179_605)">
<path d="M122.554 18.1467L126.046 23.618H123.741L120.792 18.693H118.79V23.618H116.776V11.2883H120.258C121.846 11.2883 123.023 11.5857 123.788 12.1803C124.553 12.7749 124.936 13.6755 124.936 14.8818C124.936 16.4125 124.138 17.5051 122.542 18.1595L122.554 18.1467ZM122.205 13.4521C121.577 13.1042 120.863 12.9456 120.147 12.9955H118.79V17.0285H120.19C121.129 17.0285 121.809 16.8535 122.23 16.5036C122.447 16.3103 122.617 16.0697 122.727 15.8003C122.836 15.531 122.882 15.2401 122.862 14.9501C122.89 14.665 122.845 14.3772 122.73 14.1148C122.615 13.8524 122.434 13.6241 122.205 13.4521ZM132.597 23.6223L132.2 22.3206H132.131C131.778 22.8099 131.312 23.2079 130.774 23.4815C130.218 23.7061 129.62 23.8108 129.02 23.7887C128.239 23.8334 127.471 23.5663 126.886 23.0461C126.619 22.7691 126.412 22.4393 126.279 22.0777C126.146 21.7162 126.089 21.3308 126.114 20.9464C126.089 20.522 126.175 20.0984 126.363 19.717C126.551 19.3356 126.834 19.0093 127.185 18.7698C127.898 18.2833 128.986 18.0144 130.446 17.9717L132.055 17.9205V17.4212C132.089 16.9376 131.936 16.4595 131.628 16.0854C131.455 15.9309 131.252 15.8134 131.032 15.7401C130.811 15.6667 130.579 15.639 130.347 15.6586C129.881 15.6579 129.417 15.7299 128.973 15.872C128.537 16.0108 128.109 16.1761 127.693 16.367L127.053 14.9501C127.578 14.6785 128.136 14.4762 128.713 14.3484C129.273 14.2166 129.845 14.1479 130.42 14.1435C131.606 14.1435 132.503 14.3996 133.104 14.9202C133.706 15.4409 134.014 16.2475 134.014 17.3571V23.6394L132.597 23.6223ZM132.02 19.1624L130.821 19.2136C130.113 19.1916 129.412 19.3533 128.785 19.6831C128.575 19.8207 128.405 20.0118 128.294 20.2369C128.182 20.462 128.132 20.7128 128.15 20.9634C128.139 21.1421 128.166 21.3209 128.23 21.488C128.294 21.6551 128.393 21.8066 128.521 21.9322C128.837 22.18 129.234 22.3004 129.635 22.2694C130.267 22.2997 130.886 22.084 131.363 21.6676C131.59 21.4475 131.766 21.1809 131.879 20.8862C131.993 20.5915 132.041 20.2757 132.02 19.9605V19.1496V19.1624ZM147.662 23.618V17.865C147.7 17.3004 147.55 16.7391 147.235 16.2689C147.08 16.0841 146.883 15.9395 146.66 15.8474C146.437 15.7552 146.195 15.7183 145.955 15.7396C145.633 15.7092 145.308 15.7592 145.01 15.8851C144.712 16.011 144.45 16.2088 144.248 16.4609C143.841 17.1246 143.653 17.8995 143.71 18.6759V23.618H141.721V17.865C141.759 17.3004 141.609 16.7391 141.294 16.2689C141.14 16.0832 140.943 15.938 140.72 15.8458C140.497 15.7536 140.254 15.7172 140.014 15.7396C139.694 15.7139 139.372 15.7687 139.078 15.8992C138.785 16.0296 138.528 16.2315 138.333 16.4865C137.974 16.9844 137.795 17.8124 137.795 18.9704V23.618H135.815V14.3057H137.368L137.645 15.5305H137.748C138.009 15.0818 138.401 14.7231 138.87 14.502C139.377 14.2564 139.933 14.1322 140.496 14.1392C141.926 14.1392 142.878 14.6258 143.343 15.6073H143.48C143.755 15.1436 144.158 14.7687 144.64 14.5276C145.17 14.263 145.756 14.1298 146.347 14.1392C147.46 14.1392 148.271 14.4237 148.78 14.9928C149.292 15.5561 149.544 16.414 149.544 17.5535V23.6351L147.662 23.618ZM159.01 22.5041C158.674 22.9037 158.254 23.2249 157.78 23.4452C157.306 23.6656 156.79 23.7797 156.268 23.7797C155.746 23.7797 155.23 23.6656 154.756 23.4452C154.282 23.2249 153.862 22.9037 153.526 22.5041H153.406C153.488 23.2894 153.526 23.7845 153.526 23.9381V27.7791H151.546V14.3057H153.146C153.193 14.4807 153.283 14.8989 153.424 15.5561H153.526C153.823 15.0948 154.237 14.7205 154.726 14.4715C155.215 14.2226 155.761 14.1079 156.309 14.1392C156.831 14.1164 157.352 14.221 157.826 14.4441C158.299 14.6671 158.712 15.0019 159.027 15.4196C159.676 16.2731 160 17.4567 160 18.9704C160 20.484 159.67 21.6733 159.01 22.5383V22.5041ZM157.418 16.5292C157.239 16.2662 156.996 16.0538 156.711 15.9125C156.426 15.7712 156.11 15.7058 155.792 15.7226C155.473 15.6976 155.153 15.747 154.857 15.867C154.561 15.987 154.296 16.1743 154.085 16.414C153.724 16.8749 153.543 17.6118 153.543 18.6247V18.9192C153.543 20.0572 153.722 20.8795 154.081 21.386C154.288 21.65 154.557 21.8582 154.865 21.9916C155.173 22.125 155.509 22.1794 155.843 22.1499C156.16 22.1605 156.473 22.0871 156.752 21.9372C157.031 21.7873 157.265 21.5662 157.431 21.2963C157.842 20.5649 158.034 19.7311 157.986 18.8936C158.04 18.0656 157.848 17.2401 157.435 16.5207L157.418 16.5292ZM17.0847 28.8162C17.0847 28.8162 15.5014 21.9877 18.7364 22.8968C21.9714 23.8058 17.0847 28.8162 17.0847 28.8162Z" fill="#F59D18"/>
<path d="M46.6301 13.1192V16.9603H51.2735V18.6674H46.6301V23.729H44.6328V11.4164H51.5851V13.1235L46.6301 13.1192ZM58.2685 16.1835C57.9806 16.1143 57.6854 16.0799 57.3893 16.0811C57.032 16.069 56.6762 16.1319 56.3447 16.2657C56.0132 16.3995 55.7133 16.6012 55.4645 16.8578C54.9611 17.4049 54.6955 18.1294 54.7262 18.8722V23.7461H52.7459V14.4209H54.2994L54.5597 16.064H54.6622C54.95 15.5305 55.3648 15.0761 55.87 14.741C56.3437 14.4206 56.9027 14.2496 57.4746 14.2502C57.8053 14.2444 58.1357 14.273 58.4605 14.3356L58.2685 16.1835ZM65.161 23.7461L64.764 22.4657H64.6958C64.342 22.9539 63.8767 23.3505 63.3386 23.6223C62.7842 23.8498 62.1876 23.956 61.5888 23.9338C60.8073 23.978 60.0401 23.711 59.4549 23.1912C59.1872 22.9142 58.9802 22.5844 58.8472 22.2228C58.7142 21.8613 58.6581 21.476 58.6824 21.0915C58.6579 20.6671 58.7437 20.2436 58.9314 19.8621C59.1191 19.4807 59.4024 19.1544 59.7536 18.9149C60.4664 18.4241 61.5547 18.1595 63.0143 18.1126L64.6275 18.0613V17.5492C64.6626 17.0656 64.5097 16.5871 64.2007 16.2134C64.0275 16.059 63.8246 15.9415 63.6045 15.8681C63.3844 15.7947 63.1516 15.767 62.9204 15.7866C62.4542 15.7838 61.9904 15.8544 61.5461 15.9957C61.1087 16.1335 60.681 16.3003 60.2658 16.4951L59.6256 15.0781C60.1506 14.8066 60.7087 14.6043 61.2858 14.4764C61.8449 14.3412 62.4177 14.2711 62.9929 14.2673C64.1794 14.2673 65.0756 14.5262 65.6816 15.044C66.2834 15.5604 66.5864 16.3756 66.5864 17.4809V23.7631L65.161 23.7461ZM64.5891 19.2947L63.3898 19.346C62.6826 19.3239 61.9816 19.4841 61.3541 19.8111C61.1447 19.9497 60.9757 20.141 60.864 20.3658C60.7524 20.5907 60.702 20.841 60.7182 21.0915C60.7075 21.2695 60.7351 21.4477 60.7991 21.6141C60.8632 21.7805 60.9622 21.9312 61.0895 22.056C61.4049 22.3053 61.8024 22.4272 62.2034 22.3974C62.8368 22.427 63.4573 22.2115 63.9361 21.7957C64.161 21.5746 64.3358 21.3078 64.4485 21.0132C64.5611 20.7186 64.6091 20.4033 64.5891 20.0885V19.2819V19.2947ZM74.6824 23.7461V18.0101C74.7257 17.441 74.5753 16.874 74.2557 16.4012C74.0817 16.2131 73.8671 16.0673 73.6281 15.9748C73.3892 15.8824 73.1324 15.8457 72.8771 15.8677C72.5338 15.839 72.1886 15.8912 71.8691 16.0202C71.5496 16.1491 71.2649 16.3513 71.0377 16.6103C70.6493 17.1054 70.4573 17.9376 70.4573 19.0984V23.7461H68.4728V14.4209H70.0263L70.3037 15.6415H70.4061C70.6964 15.1901 71.1115 14.8328 71.6011 14.613C72.1366 14.3681 72.7194 14.2442 73.3082 14.2502C75.5445 14.2502 76.6627 15.3883 76.6627 17.6644V23.7461H74.6824ZM84.5453 16.3926C83.8882 16.1082 83.1861 15.9421 82.4712 15.9018C80.858 15.9018 80.0513 16.9731 80.0513 19.1155C79.9927 19.9464 80.2038 20.7741 80.6531 21.4756C80.8624 21.7393 81.1324 21.9484 81.4401 22.0852C81.7478 22.2219 82.084 22.2822 82.42 22.2609C83.2979 22.2628 84.1612 22.0363 84.9252 21.6036V23.3107C84.5753 23.5259 84.1936 23.6844 83.7942 23.7802C83.3126 23.8783 82.8218 23.9241 82.3303 23.9168C80.922 23.9168 79.8465 23.49 79.1167 22.6791C78.3869 21.8682 78.0156 20.6732 78.0156 19.1326C78.0156 17.5919 78.3997 16.3585 79.1636 15.5177C79.9276 14.677 81.0415 14.2374 82.4925 14.2374C83.4071 14.223 84.3136 14.411 85.1471 14.7879L84.5496 16.3798L84.5453 16.3926ZM92.4664 23.7461V18.0101C92.5117 17.4408 92.3611 16.8732 92.0396 16.4012C91.8656 16.2131 91.651 16.0673 91.4121 15.9748C91.1732 15.8824 90.9163 15.8457 90.6611 15.8677C90.3181 15.8402 89.9735 15.8934 89.6548 16.0231C89.3361 16.1528 89.0522 16.3554 88.8259 16.6146C88.4361 17.1125 88.2412 17.9461 88.2412 19.1155V23.7461H86.261V10.6268H88.2412V13.9557C88.2388 14.5262 88.2046 15.0961 88.1388 15.6628H88.2668C88.5353 15.2142 88.9262 14.8515 89.3936 14.6172C89.916 14.36 90.4929 14.2326 91.0751 14.2459C93.3342 14.2459 94.4637 15.384 94.4637 17.6602V23.7418L92.4664 23.7461ZM98.1639 12.7437C98.0559 12.8454 97.9283 12.924 97.7889 12.9747C97.6494 13.0253 97.5011 13.0469 97.353 13.0381C97.2016 13.0484 97.0496 13.0275 96.9065 12.9769C96.7634 12.9262 96.6321 12.8469 96.5208 12.7437C96.4205 12.6384 96.3429 12.5136 96.293 12.377C96.2431 12.2404 96.2218 12.095 96.2306 11.9499C96.2203 11.8007 96.2408 11.651 96.2907 11.51C96.3406 11.3691 96.4189 11.2399 96.5208 11.1304C96.6332 11.0294 96.7648 10.952 96.9078 10.9029C97.0508 10.8537 97.2022 10.8339 97.353 10.8445C97.5018 10.829 97.6521 10.847 97.7931 10.8971C97.934 10.9472 98.062 11.0282 98.1675 11.1342C98.2731 11.2402 98.3536 11.3684 98.4032 11.5096C98.4528 11.6507 98.4702 11.8011 98.4541 11.9499C98.4628 12.095 98.4416 12.2404 98.3917 12.377C98.3418 12.5136 98.2642 12.6384 98.1639 12.7437ZM98.3303 23.7461H96.3458V14.4209H98.3303V23.7461ZM103.234 15.7866C102.188 15.7866 101.663 16.0854 101.663 16.6786C101.667 16.8281 101.708 16.9744 101.782 17.1042C101.857 17.2339 101.963 17.3428 102.09 17.4212C102.651 17.7717 103.249 18.058 103.874 18.2747C104.462 18.4825 105.025 18.7559 105.551 19.0899C105.885 19.3068 106.155 19.6075 106.336 19.9618C106.516 20.316 106.6 20.7115 106.58 21.1086C106.601 21.5129 106.521 21.916 106.347 22.2817C106.174 22.6474 105.912 22.9644 105.586 23.2041C104.736 23.7419 103.738 23.9973 102.735 23.9338C101.709 23.975 100.687 23.7809 99.7473 23.3662V21.6591C100.7 22.1315 101.744 22.3907 102.807 22.4188C104.028 22.4188 104.638 22.0503 104.638 21.3134C104.647 21.0983 104.573 20.8879 104.433 20.7245C104.24 20.5247 104.015 20.3588 103.768 20.2337C103.353 20.0176 102.925 19.8266 102.487 19.6618C101.68 19.4043 100.936 18.9781 100.306 18.4113C99.9158 17.9654 99.7125 17.386 99.7387 16.7938C99.7258 16.4269 99.8078 16.0628 99.9768 15.7369C100.146 15.4109 100.396 15.134 100.703 14.933C101.492 14.4541 102.406 14.2236 103.328 14.2715C104.401 14.2665 105.462 14.4936 106.439 14.9373L105.799 16.431C105.002 16.0634 104.141 15.8518 103.264 15.8079L103.234 15.7866ZM109.324 19.5295C109.301 20.2921 109.563 21.036 110.058 21.6164C110.314 21.8674 110.619 22.062 110.954 22.1877C111.289 22.3134 111.647 22.3674 112.004 22.3462C112.522 22.3495 113.038 22.298 113.545 22.1926C114.07 22.0697 114.582 21.8953 115.073 21.6719V23.2681C114.607 23.4943 114.113 23.6593 113.605 23.7589C113.042 23.8607 112.47 23.9093 111.898 23.904C111.271 23.9402 110.643 23.845 110.055 23.6245C109.467 23.404 108.932 23.0631 108.483 22.6236C107.67 21.7701 107.261 20.605 107.259 19.1283C107.259 17.6047 107.638 16.4097 108.398 15.5348C108.788 15.0978 109.272 14.7537 109.812 14.5278C110.353 14.3018 110.937 14.1997 111.522 14.2289C112.06 14.2007 112.598 14.2861 113.101 14.4795C113.604 14.6729 114.061 14.9699 114.441 15.3513C115.193 16.1971 115.579 17.307 115.513 18.4369V19.5081L109.324 19.5295ZM113.033 16.3457C112.843 16.1448 112.612 15.9876 112.356 15.8851C112.099 15.7827 111.824 15.7374 111.548 15.7525C111.268 15.7406 110.989 15.7877 110.729 15.8907C110.469 15.9936 110.233 16.1501 110.037 16.35C109.621 16.839 109.382 17.4539 109.358 18.0955H113.588C113.625 17.4637 113.428 16.8403 113.033 16.3457Z" fill="#0F314C"/>
<path d="M38.64 24.5484C37.9293 27.2038 36.6606 29.6772 34.9185 31.8036C34.4616 31.8714 34.0376 32.0808 33.706 32.4024C33.3745 32.724 33.1522 33.1415 33.0706 33.5961C32.5454 33.5096 32.0066 33.6151 31.5528 33.8934C31.099 34.1716 30.7606 34.6039 30.5995 35.1112C30.5025 35.1283 30.407 35.1526 30.3136 35.1837C30.0397 35.0602 29.7384 35.0097 29.4392 35.0374C29.1399 35.0651 28.853 35.1699 28.6064 35.3417L28.4741 35.4483C28.2011 35.2276 27.8801 35.0741 27.5369 34.9999C27.1937 34.9258 26.8379 34.9332 26.4981 35.0216C26.4981 34.949 26.5238 34.885 26.5323 34.8295C26.5601 34.3375 26.4167 33.851 26.1265 33.4527C25.8363 33.0544 25.4172 32.7688 24.9404 32.6444C24.662 32.5711 24.3719 32.5537 24.0868 32.5932L22.6144 34.582L23.2461 33.4937C23.4097 33.203 23.5372 32.8934 23.6259 32.5718C23.5423 32.019 23.2984 31.5028 22.9244 31.0871C22.5505 30.6714 22.0628 30.3745 21.5219 30.2331C21.0234 30.0995 20.4983 30.1015 20.0009 30.2388C19.5034 30.3761 19.0517 30.6438 18.6923 31.0141C18.5738 30.5475 18.3408 30.1179 18.0143 29.7641C17.6878 29.4104 17.2783 29.1436 16.8227 28.9881C16.3671 28.8326 15.8799 28.7931 15.4053 28.8734C14.9306 28.9537 14.4835 29.1511 14.1044 29.4478C13.9179 28.9891 13.6167 28.5859 13.2298 28.2768C12.8428 27.9677 12.383 27.7631 11.8944 27.6826C11.4058 27.6021 10.9046 27.6484 10.439 27.817C9.97331 27.9855 9.55873 28.2708 9.23487 28.6455C9.03079 29.0491 8.887 29.4805 8.80809 29.9258L8.68006 30.8562L8.73127 29.1491C8.54042 29.0264 8.33164 28.9343 8.11244 28.8759C7.71755 28.7729 7.30142 28.7853 6.91337 28.9117C6.52532 29.038 6.18163 29.2729 5.92305 29.5886C5.67423 29.3225 5.36415 29.1211 5.01976 29.0021C4.67538 28.8831 4.30713 28.85 3.94705 28.9058C3.94705 28.8546 3.90866 28.8034 3.88305 28.7479C3.75769 28.4774 3.5637 28.2445 3.32035 28.0723C3.077 27.9 2.79279 27.7946 2.49602 27.7663C2.42913 27.6937 2.35787 27.6253 2.28263 27.5614C2.39823 27.0425 2.32184 26.4993 2.0676 26.0324C1.81335 25.5655 1.39848 25.2065 0.899864 25.0221C1.05389 24.6017 1.07508 24.1442 0.960583 23.7114C0.846087 23.2786 0.601437 22.8914 0.259693 22.6023C-0.182324 19.8815 -0.0368037 17.0977 0.686474 14.4379C2.02776 9.40102 5.31503 5.10322 9.82511 2.49002C14.3352 -0.123182 19.6986 -0.837732 24.7355 0.50356C29.7725 1.84485 34.0703 5.13212 36.6835 9.6422C39.2967 14.1523 40.0112 19.5157 38.6699 24.5526L38.64 24.5484ZM17.1474 28.5857C17.1474 28.5857 21.7523 23.7588 18.671 22.9351C15.5896 22.1115 17.1474 28.5857 17.1474 28.5857ZM25.8409 14.6513C25.8389 14.6583 25.8389 14.6657 25.8409 14.6727C25.7359 14.371 25.5925 14.0841 25.4141 13.8191C25.4653 13.5161 25.5037 13.2216 25.5379 12.9314C25.7086 7.4046 23.6387 5.2835 23.404 5.06584C23.0967 5.1384 20.2373 5.95354 17.604 10.8231C17.4803 11.1048 17.3565 11.3993 17.2455 11.7065C16.6896 11.9182 16.2014 12.2766 15.8329 12.7436V12.7692C13.2722 15.8975 15.2269 23.5156 15.2269 23.5156C15.9024 22.9466 16.6076 22.4138 17.3394 21.9194C17.3942 21.8846 17.4444 21.843 17.4888 21.7956C17.8639 22.1071 18.3001 22.3368 18.7691 22.47C19.2076 22.5798 19.6642 22.5958 20.1092 22.5169C20.1203 22.5872 20.1434 22.655 20.1775 22.7175C20.6384 23.571 21.2146 25.1075 21.2146 25.1075C21.2146 25.1075 27.5864 18.6545 25.8537 14.6641L25.8409 14.6513ZM20.5232 21.1811C21.5944 20.2891 24.3642 17.6345 25.0044 15.0312C25.0385 14.8989 25.0684 14.7666 25.094 14.6385C26.5238 18.1637 21.556 23.4942 21.556 23.4942C21.556 23.4942 21.2957 22.8028 20.9158 22.0389C20.647 21.5012 20.5616 21.2622 20.5232 21.1853V21.1811ZM24.2917 19.0685C24.9533 17.8757 25.2501 16.5149 25.1453 15.1549C25.0973 16.4686 24.7637 17.756 24.1679 18.9277C23.4168 20.3275 21.7609 22.7431 21.7609 22.7431C22.6982 21.5788 23.5538 20.351 24.3216 19.0685H24.2917ZM24.5435 14.822C23.882 17.5065 21.0353 20.5964 20.2757 21.3475C20.0964 21.4371 19.7465 21.4841 19.0423 21.3006C18.3381 21.1171 18.0607 20.8738 17.9497 20.7244C17.6723 19.7001 16.7633 15.6031 17.5229 12.957C17.6868 12.3971 17.8864 11.8483 18.1204 11.3139C20.4122 6.95221 22.8534 6.19254 23.1138 6.12852C23.3016 6.31631 25.0343 8.18561 24.8209 13.0979C24.7524 13.6725 24.6498 14.2425 24.5136 14.805L24.5435 14.822ZM21.0012 14.0538C21.1858 14.1102 21.383 14.11 21.5676 14.0535C21.7521 13.997 21.9156 13.8867 22.037 13.7366C22.1584 13.5866 22.2322 13.4037 22.249 13.2115C22.2658 13.0192 22.2248 12.8263 22.1312 12.6575C22.0376 12.4887 21.8957 12.3517 21.7238 12.2641C21.5518 12.1764 21.3576 12.1421 21.1661 12.1656C20.9745 12.1891 20.7943 12.2692 20.6486 12.3958C20.5029 12.5223 20.3983 12.6895 20.3482 12.8759C20.2831 13.1186 20.3147 13.3771 20.4365 13.5969C20.5584 13.8167 20.7608 13.9805 21.0012 14.0538ZM18.2357 12.0736C16.9553 15.172 18.3893 20.1824 18.3893 20.1824C18.3893 20.1824 17.5357 15.1251 18.735 12.1675C19.6062 9.95277 21.0857 8.02945 23.0028 6.61932C23.0028 6.61932 20.0153 7.70762 18.2271 12.0693L18.2357 12.0736ZM17.8089 20.4641C17.7363 20.5153 17.5443 20.6775 17.0407 21.0104C16.328 21.4841 15.7604 21.9536 15.7604 21.9536C15.7604 21.9536 14.1428 14.869 17.1516 12.526C17.1132 12.6497 17.0706 12.7778 17.0321 12.9101C16.2767 15.4708 17.3394 19.1581 17.8174 20.4641H17.8089ZM15.611 16.7596C15.6276 18.2483 15.746 19.7341 15.9652 21.2067C15.9652 21.2067 15.7433 18.2918 15.7987 16.7041C15.8728 15.3924 16.2311 14.1124 16.8486 12.9527C16.0729 14.0735 15.6426 15.397 15.611 16.7596Z" fill="#0F314C"/>
</g>
<defs>
<clipPath id="clip0_179_605">
<rect width="160" height="36" fill="white"/>
</clipPath>
</defs>
</svg>
