<svg width="140" height="80" viewBox="0 0 140 80" fill="none" xmlns="http://www.w3.org/2000/svg">
<path fill-rule="evenodd" clip-rule="evenodd" d="M67.4669 35.3739C72.9711 37.005 65.0213 44.7512 65.0213 44.7512C65.0213 44.7512 61.9626 33.7427 67.4669 35.3739Z" fill="#F59C2B"/>
<path fill-rule="evenodd" clip-rule="evenodd" d="M0 75.0233H2.40854V68.9546H7.96136V66.9H2.40854V62.2727H8.35469V60.2297H0V75.0233ZM13.4795 64.2208C12.8734 64.6233 12.3753 65.1683 12.0288 65.808H11.9085L11.5938 63.8367H9.74289V75.0233H12.119V69.1767C12.1006 68.7352 12.1694 68.2944 12.3214 67.8796C12.4735 67.4647 12.7058 67.0839 13.0052 66.7589C13.3037 66.4501 13.6641 66.2079 14.0629 66.0484C14.4617 65.8889 14.8897 65.8156 15.3189 65.8334C15.6733 65.8318 16.0266 65.8722 16.3716 65.9537L16.6029 63.7395C16.2134 63.6647 15.8172 63.6306 15.4207 63.6377C14.7299 63.6336 14.0537 63.8367 13.4795 64.2208ZM25.2376 64.5632C24.5142 63.9462 23.4406 63.6377 22.0169 63.6377C21.3289 63.6438 20.6436 63.7268 19.974 63.8853C19.2818 64.0407 18.6123 64.284 17.9819 64.6095L18.75 66.3077C19.2424 66.0758 19.7494 65.8764 20.2678 65.7108C20.8006 65.5422 21.3563 65.4571 21.9151 65.4586C22.6154 65.4586 23.1329 65.636 23.4676 65.9907C23.8023 66.3455 23.9689 66.88 23.9674 67.5941V68.1957L22.0378 68.2582C20.284 68.3121 18.9791 68.6322 18.123 69.2183C17.267 69.8045 16.8389 70.6744 16.8389 71.8282C16.8389 72.9079 17.1474 73.747 17.7644 74.3454C18.3814 74.9439 19.239 75.2408 20.3372 75.2362C21.0562 75.2614 21.7726 75.1361 22.4403 74.8683C23.0817 74.5392 23.6366 74.0636 24.0599 73.4801H24.1571L24.6337 75.0395H26.332V67.4877C26.3273 66.1596 25.9625 65.1848 25.2376 64.5632ZM23.9489 70.6528C23.9489 71.5227 23.6874 72.1991 23.1645 72.6819C22.59 73.1829 21.8436 73.4417 21.0822 73.4038C20.4868 73.4038 20.0418 73.2673 19.7472 72.9942C19.5945 72.8445 19.4756 72.6638 19.3985 72.4642C19.3215 72.2647 19.2882 72.0509 19.3007 71.8374C19.2815 71.5371 19.342 71.2371 19.4761 70.9677C19.6102 70.6983 19.8131 70.4692 20.0642 70.3034C20.5732 69.9703 21.3876 69.7836 22.5074 69.7435L23.9442 69.6811L23.9489 70.6528ZM34.4206 63.6331C33.7097 63.6242 33.0057 63.7727 32.3591 64.0681C31.77 64.3299 31.2704 64.7587 30.9223 65.3013H30.7997L30.4665 63.8367H28.6156V75.0233H30.9824V69.4497C30.9824 68.0615 31.2138 67.0666 31.6765 66.4651C32.1393 65.8635 32.8743 65.5673 33.8815 65.5766C34.6357 65.5766 35.1864 65.7871 35.5335 66.2129C35.8805 66.6386 36.054 67.2818 36.054 68.1448V75.0233H38.4417V67.7329C38.4448 64.9982 37.1044 63.6316 34.4206 63.6331ZM45.399 65.6159C46.053 65.6159 46.882 65.8118 47.8862 66.2036L48.6057 64.2902C47.6047 63.8405 46.5171 63.6162 45.4198 63.6331C43.6799 63.6331 42.3503 64.139 41.431 65.1509C40.5117 66.1627 40.049 67.6088 40.0428 69.489C40.0428 71.34 40.4824 72.7582 41.3616 73.7439C42.2408 74.7295 43.5272 75.2231 45.2208 75.2246C45.8096 75.2346 46.3976 75.1803 46.9746 75.0627C47.4533 74.957 47.9124 74.7766 48.335 74.5282V72.4459C47.418 72.9658 46.3814 73.2378 45.3272 73.2349C44.4018 73.2349 43.6953 72.9202 43.2079 72.2909C42.7205 71.6616 42.4799 70.7191 42.486 69.4636C42.4938 66.8985 43.4647 65.6159 45.399 65.6159ZM55.711 63.6331C55.0126 63.6173 54.3207 63.7697 53.6935 64.0773C53.1332 64.3596 52.6646 64.7953 52.3423 65.3337H52.1919C52.2698 64.6516 52.31 63.9657 52.3122 63.2791V59.2834H49.9361V75.0164H52.3122V69.4636C52.3122 68.0599 52.5436 67.0573 53.0063 66.4558C53.4691 65.8542 54.2025 65.5565 55.2066 65.5627C55.9609 65.5627 56.5116 65.7733 56.8586 66.199C57.2057 66.6247 57.3792 67.2679 57.3792 68.1309V75.0095H59.7877V67.7329C59.7877 64.9982 58.4288 63.6316 55.711 63.6331ZM63.2582 59.5472C63.0775 59.5354 62.8961 59.5599 62.7249 59.6191C62.5537 59.6783 62.396 59.771 62.261 59.8919C62.1393 60.0231 62.0455 60.1778 61.9854 60.3464C61.9254 60.5151 61.9003 60.6942 61.9117 60.8729C61.9026 61.0475 61.9288 61.2221 61.9888 61.3863C62.0489 61.5505 62.1415 61.7009 62.261 61.8284C62.3952 61.9509 62.5526 62.0451 62.7239 62.1055C62.8952 62.1659 63.0769 62.1913 63.2582 62.1801C63.4361 62.1902 63.6141 62.1645 63.7819 62.1045C63.9496 62.0445 64.1035 61.9514 64.2346 61.8308C64.3539 61.7031 64.4461 61.5526 64.5058 61.3884C64.5654 61.2242 64.5912 61.0496 64.5817 60.8752C64.5934 60.6967 64.5686 60.5177 64.509 60.349C64.4493 60.1804 64.356 60.0256 64.2346 59.8942C64.1031 59.7743 63.9491 59.6819 63.7814 59.6223C63.6138 59.5627 63.4359 59.5371 63.2582 59.5472ZM62.0551 75.0233H64.4151V63.8367H62.0482L62.0551 75.0233ZM73.0729 69.4196C72.4416 69.0167 71.7662 68.6875 71.06 68.4386C69.9617 68.0129 69.2491 67.679 68.9221 67.4368C68.7733 67.3403 68.6506 67.2084 68.565 67.053C68.4794 66.8976 68.4336 66.7234 68.4316 66.546C68.4316 65.8303 69.0586 65.4733 70.3126 65.4748C71.1332 65.4748 72.1474 65.7239 73.3551 66.2221L74.1256 64.4336C72.9541 63.9 71.6809 63.6269 70.3936 63.6331C69.0656 63.6331 68.0152 63.8976 67.2424 64.4267C66.8731 64.6666 66.5723 64.9982 66.3695 65.3892C66.1668 65.7801 66.0689 66.217 66.0856 66.6571C66.0554 67.3685 66.2998 68.0642 66.7681 68.6006C67.2308 69.0972 68.1023 69.5962 69.3825 70.0975C69.9116 70.2966 70.4278 70.5284 70.9281 70.7916C71.2276 70.9387 71.4986 71.1376 71.7286 71.3793C71.8944 71.5771 71.9809 71.8294 71.9715 72.0873C71.9715 72.9696 71.2397 73.4107 69.7759 73.4107C68.5014 73.3765 67.2494 73.0663 66.1064 72.5014V74.5537C67.0087 75.0071 68.2049 75.2331 69.6949 75.2316C71.1849 75.23 72.3248 74.9385 73.1145 74.357C73.9073 73.774 74.3045 72.9364 74.306 71.8444C74.3198 71.3638 74.2158 70.8872 74.003 70.4561C73.7796 70.0395 73.458 69.6837 73.0659 69.4196H73.0729ZM80.2892 63.6354C78.6974 63.6354 77.4473 64.1583 76.5387 65.2041C75.6302 66.2499 75.1752 67.6859 75.1737 69.5122C75.1737 71.2937 75.6634 72.6912 76.6429 73.7045C77.6223 74.7179 78.9828 75.2254 80.7242 75.2269C81.4059 75.2335 82.0868 75.1761 82.7579 75.0557C83.3667 74.9356 83.9576 74.7381 84.5163 74.4681V72.5361C83.9274 72.8053 83.3127 73.0138 82.6816 73.1585C82.0732 73.2877 81.4526 73.3505 80.8306 73.3459C79.8265 73.3459 79.0483 73.0544 78.4961 72.4713C77.9439 71.8883 77.6462 71.0531 77.603 69.9656H85.0577V68.6815C85.0577 67.1098 84.6289 65.8758 83.7713 64.9797C82.9137 64.0835 81.7507 63.6347 80.2823 63.6331L80.2892 63.6354ZM77.6609 68.2489C77.7488 67.3234 78.0203 66.6255 78.4753 66.155C78.7097 65.9139 78.9926 65.7251 79.3052 65.6011C79.6179 65.477 79.9532 65.4206 80.2892 65.4355C80.6199 65.4181 80.9505 65.473 81.2578 65.5965C81.5651 65.72 81.8417 65.909 82.0684 66.1504C82.5019 66.6255 82.7247 67.325 82.7371 68.2489H77.6609ZM76.8164 1.04121C60.7178 -3.2738 44.1773 6.25392 39.8716 22.327C38.7653 26.4387 38.5476 30.7388 39.233 34.9412C39.7574 35.3907 40.1321 35.9895 40.307 36.6576C40.4819 37.3258 40.4486 38.0314 40.2117 38.6801C40.2083 38.6888 40.2044 38.6973 40.2001 38.7056C40.97 38.9932 41.6094 39.5504 41.9996 40.2737C42.3898 40.9971 42.5043 41.8374 42.3218 42.6388C42.4367 42.7379 42.5456 42.8438 42.648 42.9558C43.1041 43.0029 43.5402 43.1675 43.9137 43.4336C44.2872 43.6996 44.5853 44.0579 44.7789 44.4736C44.8159 44.5545 44.8483 44.6355 44.8784 44.7165C45.431 44.6291 45.9966 44.6793 46.5253 44.8625C47.0539 45.0457 47.5292 45.3563 47.9093 45.7669V45.7438C48.4133 45.1124 49.135 44.6921 49.9329 44.5654C50.7308 44.4387 51.5472 44.6147 52.222 45.0589L52.1526 47.7081C52.1526 47.7081 52.2197 47.2245 52.3469 46.2643C52.477 45.5809 52.7037 44.9195 53.0202 44.3C53.5163 43.7215 54.1532 43.2808 54.8693 43.0203C55.5855 42.7599 56.3567 42.6885 57.1085 42.8132C57.8603 42.9379 58.5672 43.2544 59.161 43.732C59.7547 44.2097 60.2153 44.8325 60.498 45.5402C61.0804 45.0819 61.7684 44.777 62.4991 44.6533C63.2297 44.5297 63.9797 44.5914 64.6804 44.8326C65.3811 45.0738 66.0101 45.487 66.5098 46.0342C67.0096 46.5814 67.3641 47.2452 67.5409 47.9649C68.115 47.3693 68.8443 46.9463 69.6463 46.7436C70.4483 46.5409 71.291 46.5667 72.0792 46.818C72.8673 47.0693 73.5694 47.5362 74.106 48.1657C74.6427 48.7953 74.9925 49.5624 75.1158 50.3804C74.9759 50.8759 74.7803 51.354 74.5328 51.8056C73.8803 52.9254 73.5587 53.4876 73.5587 53.4876L75.8215 50.4128C76.3036 50.3455 76.7946 50.3854 77.2594 50.5296C77.7243 50.6739 78.1516 50.9189 78.5109 51.2473C78.8702 51.5756 79.1526 51.9792 79.3381 52.4293C79.5235 52.8793 79.6073 53.3647 79.5835 53.8509C79.5697 53.9342 79.5512 54.036 79.5303 54.1493C80.05 54.0091 80.5956 53.9942 81.1221 54.1061C81.6487 54.2179 82.1411 54.4532 82.5589 54.7926C82.626 54.7347 82.6954 54.6815 82.7672 54.6306C83.1428 54.3673 83.5804 54.2061 84.0371 54.1627C84.4937 54.1193 84.9538 54.1952 85.3724 54.383C85.516 54.3347 85.6629 54.2968 85.812 54.2697C86.0557 53.4872 86.5745 52.8194 87.2725 52.3898C87.9704 51.9603 88.8003 51.7979 89.6087 51.9328C89.6096 51.9244 89.6096 51.9158 89.6087 51.9074C89.7302 51.2058 90.0693 50.5602 90.5779 50.0619C91.0866 49.5637 91.739 49.238 92.443 49.131C95.1207 45.8444 97.0702 42.0267 98.1624 37.9305C102.47 21.8759 92.9103 5.3539 76.8094 1.03889L76.8164 1.04121ZM65.1624 44.1867C65.1624 44.1867 62.7701 34.1846 67.5015 35.4525C72.233 36.7204 65.1624 44.1867 65.1624 44.1867ZM71.3908 38.7912C71.3908 38.7912 70.5024 36.4289 69.799 35.0893C69.7473 34.9939 69.7114 34.8907 69.6926 34.7839C69.0101 34.9053 68.3096 34.8792 67.638 34.7075C66.9222 34.5026 66.2581 34.1477 65.6899 33.6664C65.622 33.7401 65.5441 33.804 65.4585 33.8561C64.3359 34.6228 63.2547 35.4484 62.2194 36.3294C62.2194 36.3294 59.1885 24.5551 63.1449 19.7242V19.6802C63.1449 19.6802 63.7719 18.7362 65.3128 18.0814C65.4886 17.6048 65.676 17.156 65.8704 16.7117C69.9101 9.18767 74.3014 7.93365 74.7711 7.81797C75.1181 8.15345 78.2948 11.4342 78.0334 19.9717C77.984 20.419 77.9215 20.8764 77.846 21.3437C78.1228 21.759 78.3445 22.2086 78.5054 22.681V22.651C81.1754 28.8146 71.3908 38.7912 71.3908 38.7912ZM65.0028 19.9625C65.0606 19.7589 65.1231 19.5622 65.1855 19.3655C60.5582 22.9888 63.05 33.9417 63.05 33.9417C63.05 33.9417 63.9315 33.2198 65.0259 32.4864C65.7987 31.9704 66.0948 31.7183 66.2105 31.6396C65.4771 29.6174 63.839 23.9374 65.0028 19.9625ZM62.8325 25.9132C62.9575 22.2923 64.7344 20.0272 64.7344 20.0272C63.7819 21.8202 63.2294 23.7983 63.1148 25.8253C63.0315 28.2801 63.367 32.7802 63.367 32.7802C63.367 32.7802 62.7446 28.4791 62.8325 25.9132ZM76.9922 20.254C77.3138 12.6582 74.6554 9.77534 74.3616 9.48381C73.9636 9.59024 70.2178 10.7563 66.6987 17.4961C66.338 18.3245 66.0289 19.1745 65.7732 20.0411C64.5747 24.1433 65.9745 30.4527 66.4002 32.0445C66.5714 32.3036 66.9971 32.6368 68.0753 32.9306C69.1535 33.2245 69.6949 33.1412 69.9679 33.0023C71.1247 31.8455 75.4999 27.0724 76.5133 22.9193C76.729 22.0419 76.8889 21.1516 76.9922 20.254ZM72.8623 20.6542C72.7789 20.9243 72.6178 21.1639 72.3993 21.3431C72.1808 21.5224 71.9143 21.6334 71.6332 21.6624C71.352 21.6915 71.0685 21.6372 70.818 21.5063C70.5674 21.3755 70.3609 21.1739 70.224 20.9266C70.0871 20.6793 70.026 20.3972 70.0482 20.1154C70.0704 19.8337 70.1749 19.5646 70.3488 19.3418C70.5227 19.119 70.7583 18.9522 71.0263 18.8622C71.2942 18.7722 71.5827 18.763 71.8559 18.8357C72.2261 18.95 72.5377 19.2032 72.7254 19.5423C72.913 19.8813 72.9621 20.2798 72.8623 20.6542ZM67.6033 18.8241C65.7292 23.396 67.0758 31.2092 67.0758 31.2092C67.0758 31.2092 64.8755 23.4538 66.8444 18.6714C69.6208 11.9271 74.1742 10.2496 74.1742 10.2496C74.1742 10.2496 70.0234 12.9219 67.6033 18.8241ZM77.2282 23.2386C76.2495 27.2644 71.9924 31.3643 70.3497 32.7432C70.4121 32.8681 70.5394 33.2337 70.9512 34.0666C71.5319 35.2489 71.9345 36.3155 71.9345 36.3155C71.9345 36.3155 79.5697 28.0788 77.367 22.6324C77.3254 22.8314 77.2791 23.035 77.2282 23.2386ZM76.1339 29.4856C74.9261 31.753 72.2307 35.1633 72.2307 35.1633C72.2307 35.1633 74.7757 31.4337 75.9326 29.2658C76.8492 27.4555 77.3615 25.4677 77.4341 23.4399C77.4341 23.4399 77.8344 26.2788 76.1339 29.4763V29.4856Z" fill="#00324D"/>
<path d="M89.4025 62.2772H91.0013C92.098 62.2772 92.9201 62.4593 93.4677 62.8233C94.0137 63.1888 94.2867 63.7881 94.2867 64.6256C94.2867 65.4632 94.0345 66.067 93.5278 66.4766C93.0211 66.8861 92.2067 67.1036 91.0823 67.1036H89.4025V62.2772ZM91.7856 69.1211L95.3255 75.0279H98.0765L93.9119 68.4825C95.8276 67.7005 96.7847 66.3894 96.7832 64.5493C96.7832 63.1055 96.3251 62.0258 95.4088 61.3101C94.4926 60.5944 93.0797 60.2366 91.1702 60.2366H86.9824V75.0256H89.4025V69.1211H91.7856Z" fill="#F59C2B"/>
<path d="M107.631 75.0234V67.4877C107.631 66.1597 107.268 65.1848 106.543 64.5632C105.818 63.9416 104.745 63.6331 103.323 63.6377C102.634 63.6438 101.949 63.7268 101.28 63.8853C100.587 64.0407 99.9179 64.2841 99.2875 64.6095L100.056 66.3077C100.548 66.0758 101.055 65.8764 101.573 65.7108C102.106 65.5424 102.662 65.4573 103.221 65.4586C103.921 65.4586 104.438 65.636 104.773 65.9908C105.108 66.3455 105.275 66.88 105.273 67.5941V68.1957L103.343 68.2582C101.59 68.3122 100.285 68.6322 99.4286 69.2183C98.5726 69.8045 98.1445 70.6744 98.1445 71.8282C98.1445 72.9079 98.453 73.747 99.07 74.3455C99.687 74.9439 100.545 75.2408 101.643 75.2362C102.362 75.2614 103.078 75.1361 103.746 74.8683C104.388 74.5399 104.943 74.0642 105.366 73.4801H105.446L105.923 75.0396L107.631 75.0234ZM101.057 72.9943C100.905 72.8443 100.787 72.6635 100.71 72.464C100.633 72.2644 100.6 72.0508 100.613 71.8374C100.594 71.5371 100.654 71.2369 100.788 70.9674C100.922 70.6979 101.125 70.4688 101.377 70.3034C101.884 69.9703 102.698 69.7836 103.818 69.7435L105.254 69.6811V70.6528C105.254 71.5228 104.993 72.1991 104.47 72.6819C103.896 73.1829 103.149 73.4417 102.388 73.4038C101.797 73.4038 101.354 73.2673 101.057 72.9943Z" fill="#F59C2B"/>
<path d="M119.337 69.0957C119.337 67.9018 119.551 67.0164 119.978 66.4395C120.405 65.8627 121.081 65.575 122.007 65.5765C122.695 65.5765 123.202 65.7871 123.527 66.2082C123.856 66.6293 124.018 67.2678 124.018 68.1239V75.0233H126.396V67.7329C126.396 66.3447 126.087 65.3159 125.471 64.6464C124.854 63.977 123.881 63.64 122.553 63.6354C121.838 63.621 121.13 63.7798 120.489 64.0981C119.913 64.3902 119.432 64.8394 119.101 65.3938H118.939C118.379 64.2215 117.24 63.6346 115.522 63.6331C114.847 63.6258 114.181 63.7746 113.574 64.068C113.01 64.3337 112.54 64.7636 112.225 65.3012H112.102L111.769 63.8367H109.918V75.0233H112.294V69.4496C112.294 68.0614 112.509 67.0681 112.937 66.4696C113.366 65.8712 114.039 65.5735 114.955 65.5765C115.643 65.5765 116.148 65.7871 116.47 66.2082C116.793 66.6293 116.955 67.2678 116.956 68.1239V75.0233H119.344L119.337 69.0957Z" fill="#F59C2B"/>
<path d="M137.632 73.6883C138.423 72.6626 138.819 71.2358 138.821 69.408C138.822 67.5802 138.433 66.1611 137.652 65.1508C136.872 64.1405 135.785 63.6346 134.39 63.6331C132.906 63.6331 131.794 64.1999 131.054 65.3336H130.931C130.762 64.5454 130.651 64.0464 130.598 63.8366H128.678V79.9954H131.049V75.4166C131.049 75.2153 131.001 74.6415 130.908 73.6976H131.049C131.831 74.7156 132.93 75.2246 134.346 75.2246C135.762 75.2246 136.857 74.7125 137.632 73.6883ZM135.721 66.5413C136.163 67.1845 136.384 68.1339 136.382 69.3895C136.381 70.645 136.159 71.606 135.716 72.2723C135.517 72.5918 135.238 72.8535 134.906 73.0313C134.574 73.2091 134.202 73.2969 133.826 73.2857C132.846 73.2857 132.141 72.9772 131.711 72.3602C131.281 71.7433 131.06 70.7592 131.049 69.408V69.054C131.049 67.8416 131.267 66.9586 131.702 66.4048C132.137 65.8511 132.826 65.575 133.77 65.5765C134.151 65.5554 134.531 65.6331 134.872 65.8022C135.214 65.9713 135.506 66.2259 135.721 66.5413Z" fill="#F59C2B"/>
</svg>
