<svg width="500" height="500" viewBox="0 0 500 500" fill="none" xmlns="http://www.w3.org/2000/svg">
<path d="M214.89 117.92C205.63 108.69 197.08 99.02 183.59 94.85C155.59 86.19 122.36 91.46 99.7805 111.19C68.5005 138.52 61.1505 184.38 66.1905 221.65C71.9105 263.88 89.5005 304.65 118.84 336.22C150.92 370.76 195.91 393.22 243.48 404.4C269.17 410.4 296.14 413.4 322.64 409.4C349.14 405.4 375.21 394.14 393.49 375.14C418.89 348.77 426.42 310.94 423.84 276.04C422.03 251.58 415.27 226.59 398.15 208.67C366.23 175.27 313.64 172.77 272.09 154.67C255.09 147.26 238.86 138.15 224.59 126.76C221.199 123.992 217.961 121.041 214.89 117.92Z" fill="#0F314D"/>
<path opacity="0.7" d="M214.89 117.92C205.63 108.69 197.08 99.02 183.59 94.85C155.59 86.19 122.36 91.46 99.7805 111.19C68.5005 138.52 61.1505 184.38 66.1905 221.65C71.9105 263.88 89.5005 304.65 118.84 336.22C150.92 370.76 195.91 393.22 243.48 404.4C269.17 410.4 296.14 413.4 322.64 409.4C349.14 405.4 375.21 394.14 393.49 375.14C418.89 348.77 426.42 310.94 423.84 276.04C422.03 251.58 415.27 226.59 398.15 208.67C366.23 175.27 313.64 172.77 272.09 154.67C255.09 147.26 238.86 138.15 224.59 126.76C221.199 123.992 217.961 121.041 214.89 117.92Z" fill="white"/>
<path d="M390.509 172.3L393.229 166.46C393.229 166.46 393.229 166.29 393.229 166C393.229 166 392.899 156.19 392.469 153.15C392.149 150.87 391.169 150.55 390.689 150.54C390.017 149.975 389.261 149.516 388.449 149.18C386.237 147.834 383.939 146.635 381.569 145.59C379.219 144.37 377.219 143.67 376.379 145C376.023 145.561 375.712 146.149 375.449 146.76C375.379 146.93 375.319 147.09 375.259 147.26V147.36C375.094 147.849 374.967 148.351 374.879 148.86L371.479 151.33L370.479 151.85L372.479 162.3L378.379 169.18C378.379 169.18 378.379 169.46 378.259 169.9C377.519 173.173 375.988 176.216 373.799 178.76C372.967 179.546 372.183 180.381 371.449 181.26C371.189 181.51 370.939 181.76 370.659 182C366.389 185.73 364.749 188.59 364.039 190.75V190.89C361.07 188.068 357.916 185.445 354.599 183.04C353.879 182.48 347.219 176.66 342.479 172.15L338.849 166.21C340.019 168.36 337.919 164.4 337.729 163.99C335.609 159.27 334.729 154.06 332.269 149.48C328.609 142.48 320.079 137.17 311.739 136.08L315.739 127.08L311.819 125.51C311.934 125.602 312.062 125.676 312.199 125.73C313.079 126.05 314.789 126.67 316.859 127.33C330.659 132.61 334.519 129.33 334.859 129.07C335.375 128.767 335.795 128.325 336.071 127.795C336.347 127.264 336.468 126.666 336.419 126.07L335.219 108.66C335.204 108.445 335.234 108.229 335.306 108.026C335.378 107.823 335.492 107.637 335.639 107.48L338.639 104.17C338.884 103.9 339.029 103.555 339.051 103.191C339.073 102.827 338.97 102.467 338.759 102.17L334.669 96.42C334.441 96.1051 334.338 95.7167 334.379 95.33L334.839 91.01C334.879 90.6996 334.819 90.3847 334.669 90.11L329.059 79.28C330.163 78.7194 331.113 77.8992 331.829 76.89C334.899 71.89 334.829 68.8 332.679 67.63C330.529 66.46 326.419 73.63 316.079 71.37C310.899 70.31 299.999 80.51 295.999 88.57L300.249 78.78C295.959 84.44 293.569 86.17 294.459 88.78C294.369 88.84 294.209 88.94 294.009 89.09C290.319 92.02 290.009 94.96 290.009 94.96C289.009 98.46 290.389 103.7 296.299 110.54L285.829 124.54C285.033 124.018 284.132 123.676 283.189 123.54C278.899 122.84 272.639 125.06 270.739 125.79C269.659 125.51 268.619 125.26 267.629 125.05C264.735 124.041 261.695 123.514 258.629 123.49C255.443 123.161 252.225 123.327 249.089 123.98C247.283 124.477 245.52 125.122 243.819 125.91C242.265 126.513 240.771 127.263 239.359 128.15C237.88 128.957 236.463 129.873 235.119 130.89C231.013 133.782 227.313 137.213 224.119 141.09L220.839 145C219.639 146.26 218.449 147.527 217.269 148.8C211.938 154.256 206.235 159.335 200.199 164C194.392 167.546 188.163 170.351 181.659 172.35C177.159 173.79 172.449 175.03 167.749 176.15C162.749 177.23 157.649 178.15 152.559 179.15C149.959 179.59 147.309 180.15 144.739 180.77C141.949 181.38 139.169 182.04 136.409 182.77C133.122 183.481 129.901 184.467 126.779 185.72C125.879 186.04 124.979 186.38 124.089 186.72C124.709 186.85 125.319 187 125.919 187.18C129.424 188.633 132.636 190.71 135.399 193.31C138.519 197.082 140.432 201.706 140.889 206.58C140.809 210.88 139.379 215.79 138.279 220.58C136.739 225.71 135.489 230.17 137.499 234.09C137.96 235.293 138.638 236.402 139.499 237.36C140.673 238.78 142.04 240.028 143.559 241.07C146.349 243.25 149.559 245.39 152.039 247.93C153.865 250.791 155.444 253.802 156.759 256.93C157.419 259.081 158.269 261.17 159.299 263.17C159.739 264.17 160.199 265.17 160.719 266.12C160.988 266.672 161.302 267.201 161.659 267.7C164.744 272.476 169.022 276.364 174.069 278.98C178.608 281.846 183.793 283.531 189.149 283.88C188.798 285.682 188.541 287.501 188.379 289.33C184.804 290.329 181.329 291.658 177.999 293.3C171.649 295.95 163.839 299.76 158.869 304.18C154.949 307.701 151.616 311.826 148.999 316.4C145.937 321.621 143.523 327.195 141.809 333C141.049 335.29 140.359 337.56 139.689 339.76L139.629 339.62C139.629 339.88 139.539 340.14 139.499 340.4C138.679 343.13 137.889 345.76 137.069 348.2C133.809 355.73 128.409 363.2 125.769 367.14C124.389 368.91 122.949 370.64 121.469 372.35C118.269 375.88 114.219 380.02 111.109 383.67C110.111 384.746 109.195 385.896 108.369 387.11C107.703 387.995 107.13 388.947 106.659 389.95C104.289 395.47 109.519 399.31 113.209 404.02C113.209 404.02 113.269 404.12 113.309 404.17C114.496 406.629 115.247 409.275 115.529 411.99C115.43 414.446 115.656 416.903 116.199 419.3C116.827 421.196 117.904 422.911 119.339 424.3C121.138 426.347 123.301 428.043 125.719 429.3C126.914 430.025 128.161 430.66 129.449 431.2C133.189 432.69 145.539 432.6 148.299 427.81C148.469 427.515 148.622 427.211 148.759 426.9C149.105 426.316 149.307 425.658 149.349 424.98C149.476 424.058 149.373 423.119 149.048 422.246C148.723 421.374 148.188 420.595 147.489 419.98C147.409 420.08 147.829 420.34 147.749 420.45C143.369 413.91 131.619 406.33 131.749 399.68C131.939 387.03 139.599 378.29 148.339 370.1C156.839 362.1 167.229 360.76 175.129 352.34C180.229 346.91 185.809 341.34 189.269 330C209.859 323.72 214.979 306.78 214.979 306.78C217.099 305.92 218.839 305.09 220.799 304.22C226.439 312.75 230.479 318.37 231.069 318L276.429 287.49C277.429 288.68 286.429 299.29 295.099 302.12L295.349 302.21L304.459 306.78C302.899 312.32 295.219 313.91 295.219 313.91V314L294.529 314.14C292.909 314.08 283.859 314.14 276.039 322.61C272.329 326.21 267.439 332.74 263.799 337.83C260.799 342.01 258.739 345.04 258.739 345.04C257.38 345.363 256.044 345.778 254.739 346.28C246.309 349.33 245.579 352.94 246.059 355.02C246.068 355.356 246.105 355.69 246.169 356.02C246.489 357.165 247.123 358.197 247.999 359C248.871 360.023 249.858 360.942 250.939 361.74C252.499 363.12 253.832 364.736 254.889 366.53C255.909 369.241 256.708 372.03 257.279 374.87C258.569 380.38 265.049 392.63 274.059 393.16C276.221 393.357 278.401 393.195 280.509 392.68C281.989 392.4 283.439 391.9 283.589 390.68C283.639 390.58 283.679 390.477 283.709 390.37C283.709 390.37 283.649 390.28 283.559 390.11C283.504 389.812 283.41 389.523 283.279 389.25C282.062 386.951 280.692 384.736 279.179 382.62C276.708 377.868 274.978 372.765 274.049 367.49C273.999 367.15 273.959 366.82 273.919 366.49C273.739 364.96 273.499 363.26 273.389 361.55C273.389 361.37 273.389 361.19 273.389 361.02C273.255 358.432 273.756 355.85 274.849 353.5C276.559 350.74 279.699 349.25 282.789 348.5C284.959 347.98 287.659 347.25 290.659 346.36C294.364 345.453 297.995 344.267 301.519 342.81C313.599 338.47 326.129 332.58 328.369 326.81C331.919 317.68 338.899 307.81 338.899 307.81C335.409 285 317.999 259.56 317.999 259.56L364.899 227.82C365.319 227.56 363.639 224.26 360.629 219.06L361.449 220.36C364.529 222.12 370.139 222.91 373.449 223.24L374.179 223.31C374.697 223.37 375.219 223.39 375.739 223.37C379.319 220.21 382.509 214.23 384.649 208.37C387.568 201.448 389.465 194.138 390.279 186.67C390.804 183.145 390.935 179.573 390.669 176.02C390.679 174.8 390.619 173.56 390.509 172.3ZM295.129 112.6C295.509 111.98 295.869 111.41 296.189 110.88L296.299 110.62C297.369 108.86 297.999 107.71 297.999 107.71L297.599 107.62L297.729 107.32L297.999 107.71C297.229 109.442 296.266 111.083 295.129 112.6Z" fill="white"/>
<path d="M369.229 184C369.229 184 372.929 196.27 388.639 192.84C388.639 192.84 391.869 184.84 390.159 172.66L393.029 166.48C393.029 166.48 392.179 156.81 392.319 155.37C392.459 153.93 392.489 150.93 387.969 149.08C383.449 147.23 377.738 142.49 376.148 145.02C374.558 147.55 374.759 148.77 374.759 148.77L370.759 151.71L372.259 162.31L378.169 169.2C378.169 169.2 377.388 175.46 374.238 178.2C372.296 179.88 370.609 181.834 369.229 184Z" fill="#0F314D"/>
<path opacity="0.2" d="M385 193.56C385 193.56 388.76 177.25 386.3 167.66C386.3 167.66 391.81 162.56 390.23 150.55C390.23 150.55 391.84 150.1 392.23 153.14C392.62 156.18 393 166 393 166L390.32 172.18C390.32 172.18 390.12 186.28 389.24 191.86C389.23 191.86 389 193.09 385 193.56Z" fill="black"/>
<path d="M310.819 138.91L361.439 212.91C361.439 212.91 364.439 215.98 371.729 217.36C371.729 217.36 382.509 205.36 384.969 193.57L388.969 192.77C388.969 192.77 384.329 216.05 375.969 223.49C375.969 223.49 365.879 222.98 361.379 220.39L310.449 139.8L310.819 138.91Z" fill="#0F314D"/>
<path opacity="0.6" d="M310.819 138.91L361.439 212.91C361.439 212.91 364.439 215.98 371.729 217.36C371.729 217.36 382.509 205.36 384.969 193.57L388.969 192.77C388.969 192.77 384.329 216.05 375.969 223.49C375.969 223.49 365.879 222.98 361.379 220.39L310.449 139.8L310.819 138.91Z" fill="white"/>
<path d="M311.729 136.33C315.944 136.621 320.017 137.98 323.563 140.279C327.109 142.577 330.012 145.74 331.999 149.47C334.399 154.05 335.328 159.26 337.458 163.98C340.978 171.79 347.558 177.78 354.328 183.04C358.588 186.34 363.058 189.51 366.328 193.8C367.991 195.964 369.211 198.435 369.919 201.07" stroke="#263238" stroke-linecap="round" stroke-linejoin="round"/>
<path d="M363.779 190.74C364.499 188.58 366.129 185.74 370.399 182C377.559 175.75 378.129 169.18 378.129 169.18L372.219 162.29L370.219 151.85L374.539 149.63C374.539 149.63 374.789 145.85 376.939 144.69C379.089 143.53 389.239 149.57 391.469 151.29C392.909 152.41 392.049 157.87 393.009 166C391.459 169.51 390.329 172.18 390.329 172.18C392.919 203.04 375.909 223.48 375.909 223.48C370.911 223.209 365.985 222.163 361.309 220.38" stroke="#263238" stroke-linecap="round" stroke-linejoin="round"/>
<path d="M375.639 153.2L378.759 156C379.203 156.427 379.689 156.809 380.209 157.14C380.984 157.74 381.906 158.12 382.879 158.24C383.689 158.279 384.498 158.153 385.259 157.87C385.949 157.57 387.469 154.87 387.669 154.19" stroke="#263238" stroke-linecap="round" stroke-linejoin="round"/>
<path d="M369.078 183.29C369.078 183.29 372.288 197.02 389.268 192.53" stroke="#263238" stroke-linecap="round" stroke-linejoin="round"/>
<path d="M381.84 145.93C380.984 146.259 380.212 146.772 379.576 147.432C378.94 148.092 378.457 148.883 378.16 149.75C377.753 150.615 377.532 151.556 377.511 152.512C377.491 153.468 377.671 154.418 378.04 155.3" stroke="#263238" stroke-linecap="round" stroke-linejoin="round"/>
<path d="M386.579 148.24C385.511 148.563 384.527 149.118 383.698 149.865C382.868 150.611 382.213 151.532 381.779 152.56C381.059 154.179 380.908 155.994 381.349 157.71" stroke="#263238" stroke-linecap="round" stroke-linejoin="round"/>
<path d="M380.68 157.46C381.785 158.062 382.796 158.823 383.68 159.72C385.52 161.77 385.87 164.72 386.14 167.44" stroke="#263238" stroke-linecap="round" stroke-linejoin="round"/>
<path d="M374.52 149.63C374.52 149.63 377.77 147.63 378.32 148.71" stroke="#263238" stroke-linecap="round" stroke-linejoin="round"/>
<path d="M161.81 361.31C161.81 361.31 142.68 356.36 139.89 339.83C137.263 347.869 133.534 355.505 128.81 362.52C121.34 373.27 106.53 385.6 106.47 389.91C106.41 394.22 107.3 396.86 111.18 400.48C115.06 404.1 115.48 413.66 115.63 415.91C115.925 418.257 116.712 420.515 117.941 422.537C119.17 424.558 120.812 426.297 122.76 427.64C128.32 431.64 137.29 433.29 143.89 430.58C150.49 427.87 150 422.81 147.79 420.34C145.58 417.87 132.28 405.67 131.79 401.54C131.3 397.41 132.73 389 137.14 382.32C141.55 375.64 152.4 365.41 161.81 361.31Z" fill="#0F314D"/>
<path d="M315.689 127.27C315.689 127.27 311.599 133.96 310.369 139.79" stroke="#263238" stroke-linecap="round" stroke-linejoin="round"/>
<path d="M319.559 82.22C320.999 86.33 322.149 90.86 320.729 94.97C319.859 97.5 318.089 99.63 317.189 102.14C316.189 104.87 316.319 107.87 316.439 110.77C316.609 114.69 316.879 118.89 319.299 121.97C322.829 126.47 329.379 126.82 334.659 129.04C334.659 129.04 331.109 132.89 316.549 127.3L311.549 125.49L308.899 137.61C308.899 137.61 307.339 134.99 304.899 135.39C302.459 135.79 295.979 140.62 295.979 140.62C295.979 140.62 292.259 136.94 291.429 134.46C290.599 131.98 288.329 126.04 285.689 124.67C285.689 124.67 296.689 111.35 297.909 107.74C297.909 107.74 291.669 99.52 298.829 96.29C305.989 93.06 309.919 101.29 309.919 101.29L307.399 90.62L316.999 82.5L319.559 82.22Z" fill="#0F314D"/>
<path opacity="0.6" d="M319.559 82.22C320.999 86.33 322.149 90.86 320.729 94.97C319.859 97.5 318.089 99.63 317.189 102.14C316.189 104.87 316.319 107.87 316.439 110.77C316.609 114.69 316.879 118.89 319.299 121.97C322.829 126.47 329.379 126.82 334.659 129.04C334.659 129.04 331.109 132.89 316.549 127.3L311.549 125.49L308.899 137.61C308.899 137.61 307.339 134.99 304.899 135.39C302.459 135.79 295.979 140.62 295.979 140.62C295.979 140.62 292.259 136.94 291.429 134.46C290.599 131.98 288.329 126.04 285.689 124.67C285.689 124.67 296.689 111.35 297.909 107.74C297.909 107.74 291.669 99.52 298.829 96.29C305.989 93.06 309.919 101.29 309.919 101.29L307.399 90.62L316.999 82.5L319.559 82.22Z" fill="white"/>
<path d="M328.59 78.81L334.47 90.17C334.616 90.4425 334.675 90.7529 334.64 91.06L334.18 95.39C334.14 95.772 334.239 96.1556 334.46 96.47L338.56 102.23C338.773 102.527 338.876 102.889 338.852 103.253C338.829 103.618 338.679 103.963 338.43 104.23L335.43 107.53C335.286 107.689 335.175 107.876 335.105 108.078C335.034 108.281 335.005 108.496 335.02 108.71L336.22 126.12C336.267 126.792 336.098 127.462 335.738 128.032C335.379 128.602 334.847 129.043 334.22 129.29C332.773 129.781 331.257 130.034 329.73 130.04C324.5 130.22 314.6 126.7 312 125.74C311.797 125.667 311.612 125.553 311.455 125.405C311.299 125.257 311.174 125.078 311.09 124.88L306.76 114.64" stroke="#263238" stroke-linecap="round" stroke-linejoin="round"/>
<path d="M306.258 101.54C306.258 101.54 303.258 94.82 300.688 95.54C298.118 96.26 295.048 98.54 295.118 101.6C295.188 104.66 299.888 109.98 301.888 110.45C303.364 110.691 304.877 110.574 306.298 110.11" stroke="#263238" stroke-linecap="round" stroke-linejoin="round"/>
<path d="M330.18 96.65C330.18 97.65 329.77 98.45 329.29 98.44C328.81 98.43 328.43 97.62 328.45 96.63C328.47 95.64 328.86 94.83 329.34 94.84C329.82 94.85 330.2 95.66 330.18 96.65Z" fill="#263238"/>
<path d="M326.578 108.54C326.585 109.601 326.955 110.629 327.626 111.451C328.297 112.273 329.23 112.841 330.268 113.06" stroke="#263238" stroke-linecap="round" stroke-linejoin="round"/>
<path d="M330.42 90.36C330.42 90.36 325.95 86.47 323.34 93.63" stroke="#263238" stroke-width="2" stroke-linecap="round" stroke-linejoin="round"/>
<path d="M297.059 107.57L297.839 107.74C297.839 107.74 291.749 118.81 285.619 124.67" stroke="#263238" stroke-linecap="round" stroke-linejoin="round"/>
<path d="M299.279 109C299.279 109 296.779 128.1 300.279 136.9" stroke="#263238" stroke-linecap="round" stroke-linejoin="round"/>
<path d="M294.849 90.29C294.849 90.29 290.729 82.21 296.509 74.6" stroke="#263238" stroke-linecap="round" stroke-linejoin="round"/>
<path d="M296.44 88.9C288.59 88.47 286.25 97.9 286.25 97.9" stroke="#263238" stroke-linecap="round" stroke-linejoin="round"/>
<path d="M332.478 67.69C330.358 66.51 326.218 73.69 315.878 71.43C309.288 70.01 293.448 74.36 294.368 88.78C294.368 88.78 282.278 95.78 296.028 110.91L297.798 106.8C297.798 106.8 292.068 100.66 297.018 97.55C301.398 94.81 301.958 95.14 306.128 101.77C306.128 101.77 307.528 104.67 310.248 103.85C312.968 103.03 312.848 101.9 311.748 99.17C311.338 98.17 310.658 96.47 310.098 94.61C312.578 93.9 318.538 91.34 318.458 83.12V83C323.728 81.54 329.808 79.82 331.628 76.9C334.698 72 334.598 68.86 332.478 67.69Z" fill="#263238"/>
<path d="M297.18 88.4C296.42 83.91 299.51 79.46 303.5 77.28C307.49 75.1 312.21 74.74 316.76 74.66C319.66 74.7492 322.562 74.5144 325.41 73.96C326.406 73.7315 327.375 73.3962 328.3 72.96" stroke="white" stroke-width="0.5" stroke-linecap="round" stroke-linejoin="round"/>
<path d="M299.42 90.82C299.728 89.0879 300.556 87.4906 301.794 86.2403C303.032 84.99 304.621 84.1458 306.35 83.82C308.16 83.52 310.04 83.82 311.84 83.44C313.64 83.06 315.48 81.68 315.4 79.84" stroke="white" stroke-width="0.5" stroke-linecap="round" stroke-linejoin="round"/>
<path d="M253.929 170.2L301.809 136.11C302.361 135.717 302.989 135.443 303.652 135.305C304.316 135.167 305.001 135.169 305.664 135.31C306.327 135.451 306.953 135.728 307.503 136.124C308.053 136.52 308.515 137.026 308.859 137.61C308.859 137.61 366.989 226.42 364.739 227.82L230.849 317.89C228.559 319.33 175.169 231.65 175.169 231.65C174.506 230.59 174.272 229.317 174.516 228.09C174.759 226.864 175.461 225.776 176.479 225.05L201.839 206.68" stroke="#263238" stroke-linecap="round" stroke-linejoin="round"/>
<path d="M288.929 278.4C291.309 284.19 296.519 288.26 301.679 291.8C306.839 295.34 312.319 298.8 315.749 304.02C319.179 309.24 319.879 316.9 315.509 321.37C315.12 321.853 314.618 322.234 314.049 322.479C313.479 322.725 312.858 322.828 312.239 322.78C309.399 322.22 309.899 317.58 307.589 315.84C304.099 320.78 296.889 322.68 292.849 323.25L294.999 313.81C294.999 313.81 300.289 313.22 304.249 307.56C304.249 307.56 304.089 305.02 294.879 302.02C285.669 299.02 276.109 287.27 276.109 287.27L288.929 278.4Z" fill="#0F314D"/>
<path opacity="0.6" d="M288.929 278.4C291.309 284.19 296.519 288.26 301.679 291.8C306.839 295.34 312.319 298.8 315.749 304.02C319.179 309.24 319.879 316.9 315.509 321.37C315.12 321.853 314.618 322.234 314.049 322.479C313.479 322.725 312.858 322.828 312.239 322.78C309.399 322.22 309.899 317.58 307.589 315.84C304.099 320.78 296.889 322.68 292.849 323.25L294.999 313.81C294.999 313.81 300.289 313.22 304.249 307.56C304.249 307.56 304.089 305.02 294.879 302.02C285.669 299.02 276.109 287.27 276.109 287.27L288.929 278.4Z" fill="white"/>
<path d="M304.088 341.45C304.088 341.45 289.338 333.77 294.538 314.05C294.538 314.05 284.418 313.14 275.798 322.51C267.178 331.88 258.498 344.94 258.498 344.94C258.498 344.94 245.738 348.8 245.868 353.7C245.998 358.6 249.678 360.82 252.198 362.82C254.718 364.82 255.818 369.34 257.108 374.82C258.398 380.3 264.878 392.58 273.888 393.11C282.898 393.64 283.528 390.32 283.528 390.32C283.528 390.32 281.618 386.95 279.138 382.8C276.658 378.65 273.278 368.8 273.198 360.95C273.118 353.1 276.308 349.63 281.818 348.34C287.328 347.05 297.368 345.07 304.088 341.45Z" fill="#0F314D"/>
<path d="M276.639 287.61C275.089 286.05 285.739 298.83 296.949 302.76C307.949 306.63 307.949 312.12 307.949 312.12" stroke="#263238" stroke-linecap="round" stroke-linejoin="round"/>
<path d="M317.839 259.56C317.839 259.56 335.209 284.98 338.709 307.79C338.709 307.79 331.709 317.67 328.169 326.79C324.629 335.91 294.999 345.46 282.599 348.47C279.239 349.28 275.799 350.95 274.229 354.2C272.479 357.82 273.299 362.62 273.739 366.46C274.162 370.7 275.217 374.852 276.869 378.78C278.529 382.53 281.369 385.56 283.109 389.22C284.529 392.22 280.869 392.62 278.629 392.92C264.859 394.79 257.999 379.75 256.349 371C254.699 362.25 246.799 360.18 245.939 355.91C244.349 348.03 258.499 344.91 258.499 344.91C258.229 345.48 269.009 329.07 275.799 322.48C278.419 319.92 281.259 317.42 284.799 316.06C288.339 314.7 292.389 314.56 296.149 313.61C299.909 312.66 303.749 310.41 304.519 306.85" stroke="#263238" stroke-linecap="round" stroke-linejoin="round"/>
<path d="M294.728 314.17C294.728 314.17 287.648 332.1 304.518 341.56" stroke="#263238" stroke-linecap="round" stroke-linejoin="round"/>
<path d="M281.279 284.31C286.534 290.788 293.381 295.791 301.149 298.83" stroke="#263238" stroke-linecap="round" stroke-linejoin="round"/>
<path d="M296.91 317.16C293.618 317.367 290.372 318.04 287.27 319.16C284.153 320.293 281.392 322.232 279.27 324.78" stroke="#263238" stroke-linecap="round" stroke-linejoin="round"/>
<path opacity="0.2" d="M293.169 323.63C287.103 325.894 281.233 328.653 275.619 331.88C269.995 335.122 265.188 339.61 261.569 345C261.169 345.698 260.697 346.352 260.159 346.95C258.829 348.28 256.869 348.68 255.109 349.35C251.229 350.83 246.529 356.98 246.609 356.59C246.609 356.59 240.849 349.59 258.499 344.9C258.499 344.9 267.559 331.67 273.639 324.98C279.719 318.29 283.149 315.2 294.229 314.07L293.169 323.63Z" fill="black"/>
<path d="M293.999 141.7L295.219 140.61C293.589 138.28 292.139 135.829 290.879 133.28C289.559 130.28 288.129 124.41 283.019 123.58C277.909 122.75 270.019 126.06 270.019 126.06C270.019 126.06 258.729 121.8 248.949 124.06C248.949 124.06 235.409 127.35 223.949 141.17C212.489 154.99 203.469 165.34 181.499 172.38C159.529 179.42 132.789 181.8 124.629 186.81C124.629 186.81 139.849 191.98 140.789 204.49C141.729 217 133.449 226.61 137.339 234.17C141.229 241.73 148.439 243.33 151.619 247.63C154.799 251.93 158.739 262.23 160.569 266.26C162.399 270.29 174.199 282.59 188.999 284C188.999 284 191.909 270.6 195.619 265L175.199 231.63C175.199 231.63 172.779 227.9 176.829 224.63C180.879 221.36 201.829 206.7 201.829 206.7C201.829 206.7 198.399 200.35 197.729 195.22C197.239 192.03 195.697 189.095 193.349 186.88C193.349 186.88 195.719 179.57 201.279 175.28C206.839 170.99 217.359 160.91 221.959 154.36C226.559 147.81 236.839 128.6 255.739 126.27C259.476 127.559 262.927 129.563 265.899 132.17C271.079 136.6 281.089 144.25 293.999 141.7Z" fill="#0F314D"/>
<path opacity="0.2" d="M188.999 284C188.999 284 176.399 284 165.669 272.28C154.939 260.56 157.669 254.67 152.849 249.04C148.029 243.41 139.409 239.9 137.339 234.15C135.269 228.4 140.009 214.27 140.699 209.34C141.389 204.41 138.199 190.2 124.629 186.79C124.629 186.79 140.509 180.95 154.329 178.89C168.149 176.83 187.569 171.58 196.499 166.36C205.429 161.14 220.589 145.55 223.499 142.19C226.409 138.83 237.179 127.36 245.499 125.43C252.199 123.88 255.809 126.27 255.809 126.27C255.809 126.27 239.809 129.67 231.289 140.35C224.439 148.89 223.049 155.52 213.859 164.23C204.669 172.94 196.569 177.07 193.349 186.07C193.349 186.07 196.699 190.95 197.199 194C197.699 197.05 201.899 206.7 201.899 206.7L176.539 225.07C176.539 225.07 172.539 227.32 175.359 232.3C178.179 237.28 195.729 265.3 195.729 265.3C195.729 265.3 188.679 279.08 188.999 284Z" fill="black"/>
<path opacity="0.38" d="M270.999 125.94C270.999 125.94 281.509 122.38 284.849 124.38C288.189 126.38 295.229 141.2 295.229 141.2L293.339 142.77C293.339 142.77 278.649 141.4 273.389 137.59C268.129 133.78 261.389 125.71 249.299 124.82C249.319 124.82 256.099 122 270.999 125.94Z" fill="white"/>
<path d="M247.809 124.72C234.579 128.55 230.499 135.11 223.439 142.17C218.259 147.35 213.529 152.98 208.159 157.96C185.769 178.7 152.339 175.68 123.889 186.76C128.056 187.493 131.892 189.502 134.867 192.51C137.843 195.518 139.811 199.375 140.499 203.55C142.079 212.75 134.149 226.21 137.759 234.82C140.119 240.45 146.899 242.63 151.129 247.04C156.129 252.21 157.129 259.93 160.539 266.22C166.219 276.58 177.169 282.09 188.969 283.98" stroke="#263238" stroke-linecap="round" stroke-linejoin="round"/>
<path d="M195.149 189.52C193.539 191.16 192.089 192.95 190.509 194.61C182.559 202.93 171.579 207.54 160.939 211.94" stroke="#263238" stroke-linecap="round" stroke-linejoin="round"/>
<path d="M197.919 197C191.979 204 183.689 207.35 175.639 211.79C167.589 216.23 159.449 221.94 156.309 230.58" stroke="#263238" stroke-linecap="round" stroke-linejoin="round"/>
<path d="M275.439 130.5C265.219 118.74 245.439 125.41 245.439 125.41C252.999 124.41 258.729 125.41 269.909 134.8C278.639 142.13 289.089 142.48 293.129 142.25" stroke="#263238" stroke-linecap="round" stroke-linejoin="round"/>
<path d="M269.799 126.14C273.087 125.192 276.426 124.428 279.799 123.85C280.706 123.662 281.634 123.598 282.559 123.66C283.536 123.825 284.471 124.185 285.306 124.72C286.141 125.254 286.86 125.951 287.419 126.77C288.526 128.411 289.464 130.16 290.219 131.99C291.651 134.992 293.348 137.86 295.289 140.56" stroke="#263238" stroke-linecap="round" stroke-linejoin="round"/>
<path d="M205.448 281.32C205.448 281.32 193.698 290.86 190.448 306.61C189.381 305.477 188.634 304.081 188.283 302.565C187.932 301.049 187.989 299.467 188.448 297.98C188.448 297.98 155.448 312.04 142.598 347.81L139.828 339.81C139.828 339.81 144.268 314.63 160.228 303.43C176.368 292.09 188.138 289.43 188.138 289.43C188.138 289.43 190.138 272 195.658 265.77L205.448 281.32Z" fill="#0F314D"/>
<path opacity="0.6" d="M205.448 281.36C205.448 281.36 193.698 290.86 190.448 306.61C189.381 305.477 188.634 304.081 188.283 302.565C187.932 301.049 187.989 299.467 188.448 297.98C188.448 297.98 155.448 312.04 142.598 347.81L139.828 339.81C139.828 339.81 144.268 314.63 160.228 303.43C176.368 292.09 188.138 289.43 188.138 289.43C188.138 289.43 190.138 272.23 195.658 266L205.448 281.36Z" fill="white"/>
<path d="M220.62 304.09C218.62 304.97 216.89 305.81 214.76 306.67C214.76 306.67 209.64 323.61 189.05 329.9C185.59 341.22 180.05 346.81 174.91 352.24C167.01 360.65 156.62 362.04 148.12 369.99C139.37 378.18 131.72 386.92 131.53 399.57C131.37 409.65 158.48 421.89 145.78 429.35C133.08 436.81 116.32 426.6 115.78 416.85C115.24 407.1 113.62 403.47 108.78 398.19C103.42 392.3 107.48 387.19 112.19 382.24C121.89 371.99 130.19 362.77 136.26 349.89C141 336.66 144.03 317.12 158.61 304.18C168.15 295.71 188.18 289.41 188.18 289.41C188.18 289.41 189.09 276.41 195.67 265.3" stroke="#263238" stroke-linecap="round" stroke-linejoin="round"/>
<path d="M139.729 339C140.079 338 142.729 358.89 162.439 360.84" stroke="#263238" stroke-linecap="round" stroke-linejoin="round"/>
<path d="M173.919 298.73C165.898 302.393 159.278 308.553 155.049 316.29" stroke="#263238" stroke-linecap="round" stroke-linejoin="round"/>
<path d="M182.71 295.72C180.419 296.238 178.175 296.944 176 297.83" stroke="#263238" stroke-linecap="round" stroke-linejoin="round"/>
<path d="M121.689 422C123.585 424.808 126.279 426.983 129.424 428.244C132.569 429.504 136.019 429.792 139.329 429.07" stroke="#263238" stroke-linecap="round" stroke-linejoin="round"/>
<path opacity="0.2" d="M142.799 346.87C139.399 356.36 134.589 364.87 127.129 371.65C123.969 374.53 120.489 377.09 117.639 380.29C114.789 383.49 112.549 387.5 112.549 391.78C112.672 394.245 113.161 396.678 113.999 399C115.159 402.74 116.312 406.473 117.459 410.2C118.136 412.841 119.19 415.37 120.589 417.71C122.12 419.909 124.109 421.751 126.419 423.11C129.625 425.207 133.378 426.313 137.209 426.29C141.009 426.15 145.589 423.14 147.789 420.03C147.789 420.03 150.849 422.93 148.089 427.72C145.329 432.51 132.989 432.6 129.249 431.11C125.509 429.62 117.529 424.67 115.999 419.27C114.469 413.87 116.689 408.71 112.999 404C109.309 399.29 104.089 395.44 106.459 389.92C108.829 384.4 121.899 372.6 125.569 367.11C129.239 361.62 138.209 349.42 139.429 339.58L142.799 346.87Z" fill="black"/>
<path d="M288.359 212.29L362.379 222.9L364.219 227.57L288.559 214.38L288.359 212.29Z" fill="#0F314D"/>
<path opacity="0.6" d="M288.359 212.29L362.379 222.9L364.219 227.57L288.559 214.38L288.359 212.29Z" fill="white"/>
<path d="M249.949 242.13L226.619 312.49L230.789 317.59L250.899 244.11L249.949 242.13Z" fill="#0F314D"/>
<path opacity="0.6" d="M249.949 242.13L226.619 312.49L230.789 317.59L250.899 244.11L249.949 242.13Z" fill="white"/>
<path d="M306.389 135.72L282.329 252.15L175.169 231.65L174.689 229.85L278.999 246.8L306.389 135.72Z" fill="#0F314D"/>
<path opacity="0.6" d="M306.389 135.72L282.329 252.15L175.169 231.65L174.689 229.85L278.999 246.8L306.389 135.72Z" fill="white"/>
<path d="M304.897 183.634C312.512 180.291 315.976 171.407 312.633 163.791C309.29 156.175 300.406 152.711 292.79 156.054C285.174 159.397 281.71 168.281 285.053 175.897C288.396 183.513 297.281 186.977 304.897 183.634Z" fill="#0F314D"/>
<path d="M301.459 154.23L305.949 135.56" stroke="#263238" stroke-linecap="round" stroke-linejoin="round"/>
<path d="M230.719 317.4L251.809 242.1" stroke="#263238" stroke-linecap="round" stroke-linejoin="round"/>
<path d="M286.93 214.3L364.5 227.46" stroke="#263238" stroke-linecap="round" stroke-linejoin="round"/>
<path d="M238.289 200.08L275.619 173.23" stroke="#263238" stroke-linecap="round" stroke-linejoin="round"/>
<path d="M240.279 205.59L278.479 178.08" stroke="#263238" stroke-linecap="round" stroke-linejoin="round"/>
<path d="M244.59 214.58C248.87 214.92 253.79 211.89 256.23 208.41C258.67 204.93 260.61 200.91 264.13 198.47C266.502 197.037 269.083 195.981 271.78 195.34C274.48 194.69 277.017 193.488 279.23 191.81C281.32 190 282.65 187.09 281.81 184.48" stroke="#263238" stroke-linecap="round" stroke-linejoin="round"/>
<path d="M247.17 218.12C251.45 218.78 255.38 215.79 258.06 212.42C260.74 209.05 262.82 205.11 266.33 202.59C269.062 200.498 272.219 199.03 275.58 198.29C281.25 197.29 285.03 193.82 285.22 190.43" stroke="#263238" stroke-linecap="round" stroke-linejoin="round"/>
<path d="M299.2 184.24C307.495 184.24 314.22 177.515 314.22 169.22C314.22 160.925 307.495 154.2 299.2 154.2C290.904 154.2 284.18 160.925 284.18 169.22C284.18 177.515 290.904 184.24 299.2 184.24Z" stroke="#263238" stroke-linecap="round" stroke-linejoin="round"/>
<path d="M253.929 170.2L301.809 136.11C302.361 135.717 302.989 135.443 303.652 135.305C304.316 135.167 305.001 135.169 305.664 135.31C306.327 135.451 306.953 135.728 307.503 136.124C308.053 136.52 308.515 137.026 308.859 137.61C308.859 137.61 366.989 226.42 364.739 227.82L230.849 317.89C228.559 319.33 175.169 231.65 175.169 231.65C174.506 230.59 174.272 229.317 174.516 228.09C174.759 226.864 175.461 225.776 176.479 225.05L201.839 206.68" stroke="#263238" stroke-linecap="round" stroke-linejoin="round"/>
<path d="M279.859 242.94L294.179 183.6" stroke="#263238" stroke-linecap="round" stroke-linejoin="round"/>
<path d="M174.42 229.86L252.03 242.05" stroke="#263238" stroke-linecap="round" stroke-linejoin="round"/>
<path d="M223.879 225.16C223.879 225.16 235.949 226.63 241.879 211.08C241.879 211.08 248.879 221.43 254.609 225.3C254.609 225.3 257.049 224.66 262.419 225.95C266.643 226.786 270.943 227.178 275.249 227.12C275.249 227.12 273.919 231.79 270.959 231.88C269.034 231.885 267.135 231.433 265.419 230.56L264.759 232.19L284.609 247.05C284.859 247.37 285.044 247.736 285.151 248.127C285.259 248.518 285.289 248.927 285.237 249.33C285.186 249.732 285.056 250.121 284.854 250.473C284.651 250.825 284.381 251.133 284.059 251.38L270.059 241.68L269.399 243.32C269.399 243.32 277.779 254.5 278.019 256.26C278.259 258.02 277.859 258.14 276.509 258.26C275.159 258.38 273.169 256.32 273.169 256.32L265.679 245.55L264.379 246.74C264.379 246.74 269.739 257.74 269.049 260.07C268.359 262.4 265.299 259.16 265.299 259.16L261.139 249.39C261.139 249.39 262.769 257.1 260.329 258.14C257.889 259.18 257.709 256.08 257.059 248.72L250.579 239.87C250.579 239.87 231.639 231.27 223.879 225.16Z" fill="#0F314D"/>
<path opacity="0.2" d="M230.679 223.78L251.739 238.26L257.009 248.72L251.449 240.74L223.779 226.13L230.679 223.78Z" fill="black"/>
<path d="M263.05 130.18C253.88 135.18 252.59 136.71 247.8 140.91C241.8 146.17 236.27 152.91 235.67 160.83C235.481 162.196 235.7 163.588 236.3 164.83C237.56 167.08 240.64 167.76 243.12 167.05C245.6 166.34 247.62 164.58 249.55 162.87C249.02 163.34 248.71 164.94 248.26 165.61C247.676 166.484 246.964 167.266 246.15 167.93C244.298 169.347 242.174 170.369 239.91 170.93C234.42 172.5 228.39 172.4 222.71 173.53C216.71 174.72 212.62 177.82 208.77 182.45C206.04 185.73 210.77 194.2 212.14 198.24C215.32 207.92 223.44 216.61 230.68 223.77L223.88 225.15C223.88 225.15 205.53 215.44 201.88 206.67C198.23 197.9 196.17 190.46 193.01 186.34C193.01 186.34 195.68 180.05 207.42 169.72C219.16 159.39 225.23 149.21 229.78 143.02C235.92 134.65 250.08 126.76 255.78 126.24C255.73 126.22 258.17 126.63 263.05 130.18Z" fill="#0F314D"/>
<path opacity="0.6" d="M263.19 130.11C254.01 135.11 252.59 136.71 247.8 140.91C241.8 146.17 236.27 152.91 235.67 160.83C235.481 162.196 235.7 163.588 236.3 164.83C237.56 167.08 240.64 167.76 243.12 167.05C245.6 166.34 247.62 164.58 249.55 162.87C249.02 163.34 248.71 164.94 248.26 165.61C247.676 166.484 246.964 167.266 246.15 167.93C244.298 169.347 242.174 170.369 239.91 170.93C234.42 172.5 228.39 172.4 222.71 173.53C216.71 174.72 212.62 177.82 208.77 182.45C206.04 185.73 210.77 194.2 212.14 198.24C215.32 207.92 223.44 216.61 230.68 223.77L223.88 225.15C223.88 225.15 205.53 215.44 201.88 206.67C198.23 197.9 196.17 190.46 193.01 186.34C193.01 186.34 195.68 180.05 207.42 169.72C219.16 159.39 225.23 149.21 229.78 143.02C235.92 134.65 250.78 126.81 256.48 126.29C258.82 127.373 261.064 128.65 263.19 130.11Z" fill="white"/>
<path d="M233.129 192.33C241.419 186.68 254.619 175.09 256.929 160.87" stroke="#263238" stroke-linecap="round" stroke-linejoin="round"/>
<path d="M257.309 227.07C249.639 222.418 243.781 215.294 240.699 206.87C236.409 195.23 231.889 188.48 220.459 184.13" stroke="#263238" stroke-linecap="round" stroke-linejoin="round"/>
<path d="M205 205.08C208.518 210.74 213.604 215.256 219.64 218.08" stroke="#263238" stroke-linecap="round" stroke-linejoin="round"/>
<path d="M201.488 197.54C202.078 199.409 202.838 201.22 203.758 202.95" stroke="#263238" stroke-linecap="round" stroke-linejoin="round"/>
<path d="M223.879 225.16C223.879 225.16 237.159 225.51 242.119 210.47" stroke="#263238" stroke-linecap="round" stroke-linejoin="round"/>
<path d="M247.1 133.39C249.296 132.504 251.573 131.834 253.9 131.39" stroke="#263238" stroke-linecap="round" stroke-linejoin="round"/>
<path d="M229.309 149.54C232.733 143.053 238.11 137.806 244.679 134.54" stroke="#263238" stroke-linecap="round" stroke-linejoin="round"/>
<path d="M220.299 181.5C222.126 181.978 223.829 182.843 225.292 184.037C226.755 185.231 227.944 186.726 228.779 188.42" stroke="#263238" stroke-linecap="round" stroke-linejoin="round"/>
<path d="M255.348 225.67C257.988 224.46 261.348 225.44 262.928 225.95C265.088 226.62 273.608 227.82 275.218 227.12C276.828 226.42 273.808 230.79 271.948 231.65C270.088 232.51 265.388 230.56 265.388 230.56L264.728 232.19C264.728 232.19 283.908 245.6 284.998 247.5C286.088 249.4 285.348 251.24 284.058 251.38C282.768 251.52 270.058 241.68 270.058 241.68L269.398 243.32C269.398 243.32 279.398 256.13 278.398 257.47C277.398 258.81 275.298 258.27 273.678 256.57C272.058 254.87 265.678 245.57 265.678 245.57L264.378 246.76C264.378 246.76 269.748 258.76 269.048 260.09C268.348 261.42 266.668 260.94 265.688 259.69C264.708 258.44 260.748 248.59 260.748 248.59C260.748 248.59 261.798 256.87 261.178 257.78C261.01 257.995 260.794 258.167 260.548 258.283C260.301 258.399 260.03 258.455 259.758 258.447C259.486 258.439 259.219 258.368 258.979 258.238C258.739 258.108 258.534 257.924 258.378 257.7C257.748 256.7 257.058 248.7 257.058 248.7L250.578 239.85C237.008 234.49 212.708 218.16 212.708 218.16C199.888 207.85 198.708 199.46 197.188 193.96C196.501 191.324 195.206 188.886 193.408 186.84C196.878 173.45 212.878 170.72 225.188 149.47C237.498 128.22 256.718 126.31 256.718 126.31" stroke="#263238" stroke-linecap="round" stroke-linejoin="round"/>
<path d="M88.2091 319.71L65.7891 338.25" stroke="#263238" stroke-linecap="round" stroke-linejoin="round"/>
<path d="M146.709 271.33L101.779 308.48" stroke="#263238" stroke-linecap="round" stroke-linejoin="round"/>
<path d="M87.7895 254.83L78.9395 262.15" stroke="#263238" stroke-linecap="round" stroke-linejoin="round"/>
<path d="M129.739 220.14L94.7285 249.09" stroke="#263238" stroke-linecap="round" stroke-linejoin="round"/>
<path d="M107.789 245.31L86.4492 262.96" stroke="#263238" stroke-linecap="round" stroke-linejoin="round"/>
<path d="M219.938 333.13L192.158 356.1" stroke="#263238" stroke-linecap="round" stroke-linejoin="round"/>
<path d="M234.788 320.85L223.738 329.98" stroke="#263238" stroke-linecap="round" stroke-linejoin="round"/>
<path d="M230.56 330.92L219.51 340.06" stroke="#263238" stroke-linecap="round" stroke-linejoin="round"/>
<path d="M354.56 131.19L347.76 136.81" stroke="#263238" stroke-linecap="round" stroke-linejoin="round"/>
<path d="M382.139 108.38L357.799 128.51" stroke="#263238" stroke-linecap="round" stroke-linejoin="round"/>
<path d="M335.23 247.26H431.71C431.71 247.26 430.71 242.68 426.64 241.26C422.57 239.84 419.64 241.26 419.64 236.44C419.64 231.62 418.43 229.2 413.85 228.24C413.85 228.24 410.96 217.87 401.79 216.9C392.62 215.93 386.11 217.14 384.66 222.69C383.21 228.24 381.77 231.13 379.12 230.89C376.47 230.65 372.12 228 369.95 233.06C367.78 238.12 367.78 241.06 364.4 240.06C361.02 239.06 354.27 234.75 348.97 243.44C349 243.41 340.29 239.79 335.23 247.26Z" fill="white"/>
<path d="M168.75 142.86H72.2695C72.2695 142.86 73.2695 138.27 77.3395 136.86C81.4095 135.45 84.3395 136.86 84.3395 132.03C84.3395 127.2 85.5495 124.8 90.1295 123.83C90.1295 123.83 93.0195 113.46 102.19 112.49C111.36 111.52 117.87 112.73 119.32 118.28C120.77 123.83 122.21 126.72 124.86 126.48C127.51 126.24 131.86 123.59 134.03 128.65C136.2 133.71 136.2 136.65 139.58 135.65C142.96 134.65 149.7 130.31 155 139C155 139 163.69 135.38 168.75 142.86Z" fill="white"/>
</svg>
