<svg width="16" height="16" viewBox="0 0 16 16" fill="none" xmlns="http://www.w3.org/2000/svg">
<path d="M15.73 10.9953C15.4295 12.1105 14.9031 13.1058 14.2136 13.9465C13.8418 14.0021 13.5309 14.2869 13.4614 14.676C13.4614 14.6778 13.4614 14.6812 13.4614 14.683C13.0133 14.6083 12.586 14.8775 12.454 15.2979C12.414 15.3048 12.3758 15.3153 12.3376 15.3274C12.1187 15.2301 11.8564 15.2458 11.6462 15.3934C11.6271 15.4073 11.6098 15.4212 11.5907 15.4351C11.3666 15.2527 11.0661 15.1919 10.7882 15.2649C10.7934 15.2353 10.7986 15.2093 10.8021 15.1867C10.8246 14.7837 10.5606 14.4051 10.1524 14.2974C10.036 14.2661 9.91792 14.2609 9.80501 14.2765L9.20574 15.086C9.20574 15.086 9.29086 14.9383 9.46456 14.643C9.52883 14.5336 9.58094 14.3964 9.61915 14.2678C9.55141 13.8232 9.22659 13.4393 8.7628 13.3142C8.33376 13.1996 7.89777 13.3368 7.61116 13.6338C7.51215 13.2343 7.20297 12.8991 6.77392 12.7844C6.4022 12.6854 6.02353 12.7757 5.74387 12.9946C5.61012 12.6646 5.32873 12.3988 4.95701 12.2998C4.50538 12.1799 4.04681 12.338 3.76194 12.668C3.70983 12.774 3.60908 12.9981 3.58303 13.1857C3.54829 13.4393 3.53092 13.5661 3.53092 13.5661L3.55002 12.8661C3.47533 12.8174 3.39022 12.7775 3.29816 12.7532C2.95944 12.6628 2.61377 12.7879 2.40707 13.0432C2.40707 13.0432 2.40707 13.0467 2.40533 13.0502C2.2021 12.8313 1.89812 12.7254 1.6011 12.774C1.59415 12.7532 1.58546 12.7306 1.57504 12.7097C1.46734 12.4787 1.24848 12.3345 1.01051 12.3102C0.984455 12.2807 0.954926 12.2529 0.92366 12.2268C1.02267 11.7978 0.786436 11.3514 0.360867 11.1933C0.360867 11.1916 0.360867 11.1881 0.362604 11.1864C0.494617 10.8268 0.379974 10.4377 0.103789 10.2015C-0.0733862 9.12627 -0.0282238 7.99895 0.274017 6.87858C1.4135 2.64721 5.79946 0.137225 10.0656 1.27323C14.3334 2.40924 16.8677 6.7622 15.7265 10.9936L15.73 10.9953ZM6.98063 12.6403C6.98063 12.6403 8.85486 10.674 7.60074 10.3404C6.34662 10.0069 6.98063 12.6403 6.98063 12.6403ZM10.5189 6.9689C10.5189 6.9689 10.5189 6.97411 10.5172 6.97759C10.479 6.86989 10.4234 6.74309 10.3417 6.62497C10.3626 6.50164 10.3782 6.38179 10.3921 6.26367C10.4616 4.01424 9.61915 3.15094 9.52709 3.06236C9.40202 3.09189 8.23823 3.42366 7.16823 5.40559C7.11611 5.52023 7.06748 5.64009 7.02058 5.76515C6.61238 5.93711 6.44563 6.18724 6.44563 6.18724V6.1994C5.39473 7.47263 6.19897 10.5732 6.19897 10.5732C6.19897 10.5732 6.72008 10.1337 7.05879 9.92182C7.08485 9.90619 7.10396 9.88882 7.11959 9.87145C7.24987 9.97741 7.4253 10.0903 7.63548 10.1459C7.83524 10.1997 8.02457 10.1928 8.1809 10.165C8.18438 10.1893 8.19306 10.2171 8.2087 10.2466C8.39456 10.5993 8.63079 11.2211 8.63079 11.2211C8.63079 11.2211 11.2242 8.59301 10.5189 6.97064V6.9689ZM8.35461 9.62653C8.7906 9.2635 9.91792 8.18307 10.1785 7.12349C10.1924 7.06965 10.2045 7.0158 10.2149 6.96369C10.7951 8.39846 8.77496 10.568 8.77496 10.568C8.77496 10.568 8.66901 10.2866 8.51441 9.97567C8.40498 9.75681 8.37198 9.65954 8.35461 9.62653ZM9.88839 8.76671C10.34 7.92426 10.2323 7.17387 10.2323 7.17387C10.2323 7.17387 10.2288 7.97116 9.83454 8.70765C9.52883 9.27913 8.85487 10.2605 8.85487 10.2605C8.85487 10.2605 9.56878 9.36251 9.88839 8.76497V8.76671ZM9.99087 7.03838C9.72337 8.13096 8.56478 9.38856 8.25733 9.69428C8.18438 9.73075 8.04194 9.7516 7.75534 9.67517C7.46873 9.59874 7.35582 9.51015 7.31066 9.44241C7.19775 9.02552 6.82603 7.36147 7.14391 6.28104C7.21512 6.0396 7.2985 5.81726 7.38709 5.61229C8.31987 3.83706 9.31344 3.52961 9.41766 3.50182C9.49582 3.57825 10.1993 4.33732 10.1142 6.33836C10.0881 6.5607 10.0482 6.7952 9.98914 7.03838H9.99087ZM8.54915 6.72572C8.75586 6.77262 8.96603 6.64929 9.01988 6.44259C9.07547 6.23762 8.95735 6.0257 8.75412 5.96317C8.54741 5.91627 8.33723 6.0396 8.28339 6.2463C8.2278 6.45127 8.34592 6.66319 8.54915 6.72572ZM7.42357 5.92148C6.9042 7.18082 7.4861 9.22354 7.4861 9.22354C7.4861 9.22354 7.13001 7.16518 7.6268 5.96143C8.26776 4.40681 9.36555 3.70331 9.36555 3.70331C9.36555 3.70331 8.15659 4.14452 7.42357 5.92148ZM7.25681 9.33645C7.22555 9.35729 7.14738 9.4233 6.94415 9.56053C6.65407 9.75333 6.41957 9.94441 6.41957 9.94441C6.41957 9.94441 5.76124 7.06096 6.98584 6.10734C6.96847 6.15945 6.95283 6.21156 6.9372 6.26367C6.62975 7.31109 7.06227 8.80666 7.25681 9.33819V9.33645ZM6.36225 7.83046C6.33967 8.50616 6.50642 9.63869 6.50642 9.63869C6.50642 9.63869 6.41784 8.45405 6.44042 7.80614C6.46995 6.97064 6.86772 6.27931 6.86772 6.27931C6.86772 6.27931 6.39699 6.8751 6.36399 7.82872L6.36225 7.83046Z" fill="#00324D"/>
</svg>
